<svg width="670.5650146484375px" height="144.8px" xmlns="http://www.w3.org/2000/svg" viewBox="-85.28250732421873 2.5999999999999943 670.5650146484375 144.8" style="background: rgba(0, 0, 0, 0);" preserveAspectRatio="xMidYMid"><defs><linearGradient id="editing-gradient-gradient" x1="0" x2="1" y1="0.5000000000000001" y2="0.4999999999999999" gradientUnits="objectBoundingBox"><stop offset="0" stop-color="#f0f"></stop><stop offset="1" stop-color="#0ff"></stop></linearGradient></defs><g><g transform="translate(10.610016942024231, 108.97000312805176)"><path d="M1.34 0L1.34-10.99L4.69-10.99L4.69-41.14L1.34-41.14L1.34-52.13L32.09-52.13L32.09-52.13Q40.47-52.13 45.16-48.71L45.16-48.71L45.16-48.71Q49.85-45.29 49.85-38.93L49.85-38.93L49.85-38.93Q49.85-34.97 47.97-32.26L47.97-32.26L47.97-32.26Q46.10-29.55 43.58-28.17L43.58-28.17L43.58-28.17Q41.07-26.80 38.73-26.33L38.73-26.33L38.73-25.66L38.73-25.66Q43.48-25.19 47.30-22.65L47.30-22.65L47.30-22.65Q51.12-20.10 51.12-13.53L51.12-13.53L51.12-13.53Q51.12-6.50 45.83-3.25L45.83-3.25L45.83-3.25Q40.54 0 32.09 0L32.09 0L1.34 0ZM23.45-30.15L27.07-30.15L27.07-30.15Q29.01-30.15 29.98-31.19L29.98-31.19L29.98-31.19Q30.95-32.23 30.95-34.44L30.95-34.44L30.95-36.85L30.95-36.85Q30.95-39.06 29.98-40.10L29.98-40.10L29.98-40.10Q29.01-41.14 27.07-41.14L27.07-41.14L23.45-41.14L23.45-30.15ZM23.45-10.99L27.54-10.99L27.54-10.99Q29.48-10.99 30.45-12.03L30.45-12.03L30.45-12.03Q31.42-13.07 31.42-15.28L31.42-15.28L31.42-18.22L31.42-18.22Q31.42-20.44 30.45-21.47L30.45-21.47L30.45-21.47Q29.48-22.51 27.54-22.51L27.54-22.51L23.45-22.51L23.45-10.99ZM73.10 0.94L73.10 0.94Q63.58 0.94 58.22-4.05L58.22-4.05L58.22-4.05Q52.86-9.04 52.86-18.63L52.86-18.63L52.86-18.63Q52.86-28.21 58.22-33.20L58.22-33.20L58.22-33.20Q63.58-38.19 73.10-38.19L73.10-38.19L73.10-38.19Q82.75-38.19 88.04-33.13L88.04-33.13L88.04-33.13Q93.33-28.07 93.33-18.63L93.33-18.63L93.33-18.63Q93.33-9.04 87.97-4.05L87.97-4.05L87.97-4.05Q82.61 0.94 73.10 0.94L73.10 0.94ZM73.10-10.99L73.10-10.99Q75.04-10.99 76.01-12.03L76.01-12.03L76.01-12.03Q76.98-13.07 76.98-15.28L76.98-15.28L76.98-21.98L76.98-21.98Q76.98-24.19 76.01-25.23L76.01-25.23L76.01-25.23Q75.04-26.26 73.10-26.26L73.10-26.26L73.10-26.26Q71.15-26.26 70.18-25.23L70.18-25.23L70.18-25.23Q69.21-24.19 69.21-21.98L69.21-21.98L69.21-15.28L69.21-15.28Q69.21-13.07 70.18-12.03L70.18-12.03L70.18-12.03Q71.15-10.99 73.10-10.99L73.10-10.99ZM115.44 0.94L115.44 0.94Q105.93 0.94 100.57-4.05L100.57-4.05L100.57-4.05Q95.21-9.04 95.21-18.63L95.21-18.63L95.21-18.63Q95.21-28.21 100.57-33.20L100.57-33.20L100.57-33.20Q105.93-38.19 115.44-38.19L115.44-38.19L115.44-38.19Q125.09-38.19 130.38-33.13L130.38-33.13L130.38-33.13Q135.68-28.07 135.68-18.63L135.68-18.63L135.68-18.63Q135.68-9.04 130.31-4.05L130.31-4.05L130.31-4.05Q124.96 0.94 115.44 0.94L115.44 0.94ZM115.44-10.99L115.44-10.99Q117.38-10.99 118.36-12.03L118.36-12.03L118.36-12.03Q119.33-13.07 119.33-15.28L119.33-15.28L119.33-21.98L119.33-21.98Q119.33-24.19 118.36-25.23L118.36-25.23L118.36-25.23Q117.38-26.26 115.44-26.26L115.44-26.26L115.44-26.26Q113.50-26.26 112.53-25.23L112.53-25.23L112.53-25.23Q111.56-24.19 111.56-21.98L111.56-21.98L111.56-15.28L111.56-15.28Q111.56-13.07 112.53-12.03L112.53-12.03L112.53-12.03Q113.50-10.99 115.44-10.99L115.44-10.99ZM171.79-19.90L178.22-10.99L181.10-10.99L181.10 0L164.69 0L157.78-12.86L156.18-12.86L156.18 0L137.82 0L137.82-10.99L140.77-10.99L140.77-41.14L137.82-41.14L137.82-52.13L156.18-52.13L156.18-24.92L157.78-24.92L166.09-37.25L180.23-37.25L180.23-26.26L177.48-26.26L171.79-19.90ZM199.53 0.94L199.53 0.94Q191.08 0.94 183.24-1.74L183.24-1.74L183.24-11.66L194.10-11.66L194.10-10.99L194.10-10.99Q194.10-7.77 198.19-7.77L198.19-7.77L198.19-7.77Q201.80-7.77 201.80-10.25L201.80-10.25L201.80-10.25Q201.80-11.59 200.77-12.26L200.77-12.26L200.77-12.26Q199.73-12.93 197.11-13.40L197.11-13.40L193.76-14.00L193.76-14.00Q183.24-15.88 183.24-25.93L183.24-25.93L183.24-25.93Q183.24-31.76 187.67-34.97L187.67-34.97L187.67-34.97Q192.09-38.19 199.59-38.19L199.59-38.19L199.59-38.19Q207.97-38.19 213.73-35.38L213.73-35.38L213.73-26.06L203.55-26.06L203.55-26.73L203.55-26.73Q203.55-28.07 202.64-28.78L202.64-28.78L202.64-28.78Q201.74-29.48 199.99-29.48L199.99-29.48L199.99-29.48Q196.64-29.48 196.64-27.34L196.64-27.34L196.64-27.34Q196.64-26.20 197.58-25.59L197.58-25.59L197.58-25.59Q198.52-24.99 201-24.46L201-24.46L204.82-23.72L204.82-23.72Q210.78-22.58 213.33-19.50L213.33-19.50L213.33-19.50Q215.87-16.42 215.87-11.59L215.87-11.59L215.87-11.59Q215.87-5.49 211.62-2.28L211.62-2.28L211.62-2.28Q207.36 0.94 199.53 0.94L199.53 0.94ZM234.57 0.94L234.57 0.94Q227.46 0.94 223.88-2.51L223.88-2.51L223.88-2.51Q220.30-5.96 220.30-14.14L220.30-14.14L220.30-26.26L217.35-26.26L217.35-37.25L217.35-37.25Q219.89-37.25 221.17-38.56L221.17-38.56L221.17-38.56Q222.44-39.87 222.44-42.14L222.44-42.14L222.44-45.16L236.64-45.16L236.64-37.25L245.69-37.25L245.69-26.26L236.64-26.26L236.64-15.28L236.64-15.28Q236.64-13.07 237.62-12.03L237.62-12.03L237.62-12.03Q238.59-10.99 240.53-10.99L240.53-10.99L240.53-10.99Q243.08-10.99 246.09-11.59L246.09-11.59L246.09-1.07L246.09-1.07Q244.21-0.34 241.03 0.30L241.03 0.30L241.03 0.30Q237.85 0.94 234.57 0.94L234.57 0.94ZM284.35-10.99L287.30-10.99L287.30 0L269.61 0L269.61-4.56L269.61-4.56Q268.13-2.41 265.49-0.74L265.49-0.74L265.49-0.74Q262.84 0.94 259.02 0.94L259.02 0.94L259.02 0.94Q254.00 0.94 251.12-1.74L251.12-1.74L251.12-1.74Q248.23-4.42 248.23-9.31L248.23-9.31L248.23-9.31Q248.23-21.98 269.74-22.31L269.74-22.31L269.74-22.31Q269.54-24.59 268-25.43L268-25.43L268-25.43Q266.46-26.26 262.77-26.26L262.77-26.26L262.77-26.26Q259.76-26.26 256.31-25.63L256.31-25.63L256.31-25.63Q252.86-24.99 249.98-23.92L249.98-23.92L249.98-36.25L249.98-36.25Q253.53-37.12 257.68-37.65L257.68-37.65L257.68-37.65Q261.84-38.19 265.79-38.19L265.79-38.19L265.79-38.19Q275.77-38.19 280.06-34.57L280.06-34.57L280.06-34.57Q284.35-30.95 284.35-23.38L284.35-23.38L284.35-10.99ZM269.61-15.28L269.61-15.68L269.61-15.68Q266.59-15.68 264.95-14.87L264.95-14.87L264.95-14.87Q263.31-14.07 263.31-12.19L263.31-12.19L263.31-12.19Q263.31-11.06 264.01-10.35L264.01-10.35L264.01-10.35Q264.72-9.65 265.99-9.65L265.99-9.65L265.99-9.65Q267.73-9.65 268.67-11.12L268.67-11.12L268.67-11.12Q269.61-12.60 269.61-15.28L269.61-15.28ZM309.07 15.81L309.07 15.81Q304.25 15.81 299.86 15.14L299.86 15.14L299.86 15.14Q295.47 14.47 293.06 13.60L293.06 13.60L293.06 2.61L293.06 2.61Q300.16 3.89 305.79 3.89L305.79 3.89L305.79 3.89Q309.61 3.89 311.32 2.71L311.32 2.71L311.32 2.71Q313.02 1.54 313.02-1.68L313.02-1.68L313.02-4.56L313.02-4.56Q311.35-2.41 308.70-0.74L308.70-0.74L308.70-0.74Q306.06 0.94 302.64 0.94L302.64 0.94L302.64 0.94Q295.81 0.94 292.35-4.15L292.35-4.15L292.35-4.15Q288.90-9.25 288.90-18.63L288.90-18.63L288.90-18.63Q288.90-28.01 292.35-33.10L292.35-33.10L292.35-33.10Q295.81-38.19 302.64-38.19L302.64-38.19L302.64-38.19Q306.06-38.19 308.70-36.52L308.70-36.52L308.70-36.52Q311.35-34.84 313.02-32.70L313.02-32.70L313.02-37.25L331.38-37.25L331.38-26.26L328.43-26.26L328.43-2.68L328.43-2.68Q328.43 7.04 323.61 11.42L323.61 11.42L323.61 11.42Q318.79 15.81 309.07 15.81L309.07 15.81ZM309.14-10.99L309.14-10.99Q311.08-10.99 312.05-12.03L312.05-12.03L312.05-12.03Q313.02-13.07 313.02-15.28L313.02-15.28L313.02-21.98L313.02-21.98Q313.02-24.19 312.05-25.23L312.05-25.23L312.05-25.23Q311.08-26.26 309.14-26.26L309.14-26.26L309.14-26.26Q307.19-26.26 306.22-25.23L306.22-25.23L306.22-25.23Q305.25-24.19 305.25-21.98L305.25-21.98L305.25-15.28L305.25-15.28Q305.25-13.07 306.22-12.03L306.22-12.03L306.22-12.03Q307.19-10.99 309.14-10.99L309.14-10.99ZM361.87-38.19L361.87-38.19Q363.21-38.19 364.41-37.92L364.41-37.92L364.41-37.92Q365.62-37.65 366.42-37.25L366.42-37.25L366.42-24.46L366.42-24.46Q363.68-25.59 360.53-25.59L360.53-25.59L360.53-25.59Q356.31-25.59 354.03-23.38L354.03-23.38L354.03-23.38Q351.75-21.17 351.75-16.82L351.75-16.82L351.75-10.99L357.78-10.99L357.78 0L333.39 0L333.39-10.99L336.34-10.99L336.34-26.26L333.39-26.26L333.39-37.25L351.75-37.25L351.75-32.36L351.75-32.36Q353.63-35.18 356.04-36.68L356.04-36.68L356.04-36.68Q358.45-38.19 361.87-38.19L361.87-38.19ZM404.68-10.99L407.63-10.99L407.63 0L389.94 0L389.94-4.56L389.94-4.56Q388.47-2.41 385.82-0.74L385.82-0.74L385.82-0.74Q383.17 0.94 379.35 0.94L379.35 0.94L379.35 0.94Q374.33 0.94 371.45-1.74L371.45-1.74L371.45-1.74Q368.57-4.42 368.57-9.31L368.57-9.31L368.57-9.31Q368.57-21.98 390.07-22.31L390.07-22.31L390.07-22.31Q389.87-24.59 388.33-25.43L388.33-25.43L388.33-25.43Q386.79-26.26 383.11-26.26L383.11-26.26L383.11-26.26Q380.09-26.26 376.64-25.63L376.64-25.63L376.64-25.63Q373.19-24.99 370.31-23.92L370.31-23.92L370.31-36.25L370.31-36.25Q373.86-37.12 378.01-37.65L378.01-37.65L378.01-37.65Q382.17-38.19 386.12-38.19L386.12-38.19L386.12-38.19Q396.10-38.19 400.39-34.57L400.39-34.57L400.39-34.57Q404.68-30.95 404.68-23.38L404.68-23.38L404.68-10.99ZM389.94-15.28L389.94-15.68L389.94-15.68Q386.93-15.68 385.28-14.87L385.28-14.87L385.28-14.87Q383.64-14.07 383.64-12.19L383.64-12.19L383.64-12.19Q383.64-11.06 384.35-10.35L384.35-10.35L384.35-10.35Q385.05-9.65 386.32-9.65L386.32-9.65L386.32-9.65Q388.06-9.65 389.00-11.12L389.00-11.12L389.00-11.12Q389.94-12.60 389.94-15.28L389.94-15.28ZM474.49-10.99L477.44-10.99L477.44 0L456.27 0L456.27-10.99L459.08-10.99L459.08-21.98L459.08-21.98Q459.08-24.19 458.15-25.23L458.15-25.23L458.15-25.23Q457.21-26.26 455.33-26.26L455.33-26.26L455.33-26.26Q451.31-26.26 451.31-21.98L451.31-21.98L451.31-10.99L454.13-10.99L454.13 0L433.09 0L433.09-10.99L435.90-10.99L435.90-21.98L435.90-21.98Q435.90-24.19 434.96-25.23L434.96-25.23L434.96-25.23Q434.03-26.26 432.15-26.26L432.15-26.26L432.15-26.26Q428.13-26.26 428.13-21.98L428.13-21.98L428.13-10.99L430.94-10.99L430.94 0L409.77 0L409.77-10.99L412.72-10.99L412.72-26.26L409.77-26.26L409.77-37.25L428.13-37.25L428.13-32.03L428.13-32.03Q432.95-38.19 440.19-38.19L440.19-38.19L440.19-38.19Q444.28-38.19 446.86-36.28L446.86-36.28L446.86-36.28Q449.44-34.37 450.51-30.89L450.51-30.89L450.51-30.89Q452.92-34.37 456.04-36.25L456.04-36.25L456.04-36.25Q459.15-38.12 463.37-38.12L463.37-38.12L463.37-38.12Q468.93-38.12 471.71-34.64L471.71-34.64L471.71-34.64Q474.49-31.16 474.49-25.06L474.49-25.06L474.49-10.99Z" fill="url(#editing-gradient-gradient)"></path></g></g><style>text {
  font-size: 64px;
  font-family: Arial Black;
  dominant-baseline: central;
  text-anchor: middle;
}</style></svg>