<?xml version="1.0" encoding="UTF-8" standalone="no"?>
<svg
   xmlns:dc="http://purl.org/dc/elements/1.1/"
   xmlns:cc="http://creativecommons.org/ns#"
   xmlns:rdf="http://www.w3.org/1999/02/22-rdf-syntax-ns#"
   xmlns:svg="http://www.w3.org/2000/svg"
   xmlns="http://www.w3.org/2000/svg"
   xmlns:sodipodi="http://sodipodi.sourceforge.net/DTD/sodipodi-0.dtd"
   xmlns:inkscape="http://www.inkscape.org/namespaces/inkscape"
   version="1.1"
   id="svg2"
   xml:space="preserve"
   width="6400"
   height="4800"
   viewBox="0 0 6400 4800"
   sodipodi:docname="Man_reading_book_character_illustration.eps"><metadata
     id="metadata8"><rdf:RDF><cc:Work
         rdf:about=""><dc:format>image/svg+xml</dc:format><dc:type
           rdf:resource="http://purl.org/dc/dcmitype/StillImage" /></cc:Work></rdf:RDF></metadata><defs
     id="defs6" /><sodipodi:namedview
     pagecolor=""
     bordercolor="#666666"
     borderopacity="1"
     objecttolerance="10"
     gridtolerance="10"
     guidetolerance="10"
     inkscape:pageopacity="0"
     inkscape:pageshadow="2"
     inkscape:window-width="640"
     inkscape:window-height="480"
     id="namedview4" /><g
     id="g10"
     inkscape:groupmode="layer"
     inkscape:label="ink_ext_XXXXXX"
     transform="matrix(1.3333333,0,0,-1.3333333,0,4800)"><g
       id="g12"
       transform="scale(0.1)"><path
         d="M 48000,0 H 0 V 36000 H 48000 V 0"
         style="fill:#ffffff;fill-opacity:0;fill-rule:nonzero;stroke:none"
         id="path14" /><path
         d="m 38329.6,18005.7 c 0,-7914 -6415.6,-14329.6 -14329.6,-14329.6 -7914,0 -14329.65,6415.6 -14329.65,14329.6 0,7914.1 6415.65,14329.7 14329.65,14329.7 7914,0 14329.6,-6415.6 14329.6,-14329.7"
         style="fill:#f8d49f;fill-opacity:1;fill-rule:nonzero;stroke:none"
         id="path16" /><path
         d="M 43475.1,3585.1 H 4524.94 c -28.31,0 -51.47,23.1 -51.47,51.4 V 3887 c 0,28.3 23.16,51.4 51.47,51.4 H 43475.1 c 28.3,0 51.4,-23.1 51.4,-51.4 v -250.5 c 0,-28.3 -23.1,-51.4 -51.4,-51.4"
         style="fill:#c56c49;fill-opacity:1;fill-rule:nonzero;stroke:none"
         id="path18" /><path
         d="m 34240.3,9069.3 c 0,0 -1610.4,5242.4 -376.8,8274.8 1233.5,3032.4 1233.5,3032.4 1233.5,3032.4 0,0 3178.3,-4291.6 278.5,-11307.2 h -1135.2"
         style="fill:#3a888e;fill-opacity:1;fill-rule:nonzero;stroke:none"
         id="path20" /><path
         d="M 34778,9276.3 33578.4,8967 c 0,0 -4502.1,4664.2 -792.1,10906.6 0.3,0.6 0.3,0.6 0.3,0.6 0,0 1009.9,-1827 1761.1,-2912.7 751.2,-1086.1 1298.7,-3470.3 230.3,-7685.2"
         style="fill:#4e9fa1;fill-opacity:1;fill-rule:nonzero;stroke:none"
         id="path22" /><path
         d="M 34112.1,9104.6 33578.4,8967 c 0,0 -4502.1,4664.2 -792.1,10906.6 -15.8,-60.1 -1260.5,-4726 1325.8,-10769"
         style="fill:#3a888e;fill-opacity:1;fill-rule:nonzero;stroke:none"
         id="path24" /><path
         d="m 35786.7,9069.3 h -1233.5 c 0,0 3072.5,3676.4 3814.6,8086.7 v 0.5 c 105.9,627.1 164,1269 159.9,1917.6 0,0 3494.9,-5036.8 -2741,-10004.8"
         style="fill:#3a888e;fill-opacity:1;fill-rule:nonzero;stroke:none"
         id="path26" /><path
         d="m 35784.1,9069.3 h -1230.9 c 0,0 3072.5,3676.4 3814.6,8086.7 737,-2831.9 -1432.9,-6437.4 -2583.7,-8086.7"
         style="fill:#4e9fa1;fill-opacity:1;fill-rule:nonzero;stroke:none"
         id="path28" /><path
         d="M 33246.7,9069.3 H 32099 c -4377.4,4241.8 -2714.2,9340.8 -2681.8,9438.4 0.5,1.1 0.5,1.6 0.5,1.6 0,-1999.9 997.1,-4339.9 1973.6,-6191.7 943.6,-1788.6 1868.2,-3120.8 1855.4,-3248.3"
         style="fill:#4e9fa1;fill-opacity:1;fill-rule:nonzero;stroke:none"
         id="path30" /><path
         d="m 31391.3,12317.6 c -23.1,18.5 -46.8,38 -70.9,58.6 -2566.2,2168.9 -1917.6,6047.8 -1903.2,6131.5 0.5,1.1 0.5,1.6 0.5,1.6 0,-1999.9 997.1,-4339.9 1973.6,-6191.7"
         style="fill:#3a888e;fill-opacity:1;fill-rule:nonzero;stroke:none"
         id="path32" /><path
         d="m 35505,4414.5 h 278.7 c 131.1,0 237.9,-107.1 237.9,-238.2 0,-131.1 -106.8,-237.9 -237.9,-237.9 h -3342.9 c -131.1,0 -237.9,106.8 -237.9,237.9 0,131.1 106.8,238.2 237.9,238.2 h 278.1 c -3049.8,1004.1 -2984.1,5271.6 -2984.1,5271.6 h 8754.9 c 0,0 65.7,-4267.5 -2984.7,-5271.6"
         style="fill:#f89f2d;fill-opacity:1;fill-rule:nonzero;stroke:none"
         id="path34" /><path
         d="m 34250.1,4430.1 c 0,0 -391.2,-79.8 -402.6,-491.7 h -1406.7 c -131.1,0 -237.9,106.8 -237.9,237.9 0,131.1 106.8,238.2 237.9,238.2 h 278.1 C 29669.1,5418.6 29734.8,9686.1 29734.8,9686.1 H 32829 c -75,-1430.1 57.3,-3736.5 1421.1,-5256"
         style="fill:#e78917;fill-opacity:1;fill-rule:nonzero;stroke:none"
         id="path36" /><path
         d="M 15520.3,9893.2 H 9524.69 c -59.95,0 -108.99,49.1 -108.99,109 v 530.3 c 0,59.9 49.04,109 108.99,109 h 5995.61 c 60,0 109,-49.1 109,-109 v -530.3 c 0,-59.9 -49,-109 -109,-109"
         style="fill:#3d6d97;fill-opacity:1;fill-rule:nonzero;stroke:none"
         id="path38" /><path
         d="M 10136.6,9893.2 9015.19,3938.4 h 400.51 l 1476.2,5954.8 h -755.3"
         style="fill:#3d6d97;fill-opacity:1;fill-rule:nonzero;stroke:none"
         id="path40" /><path
         d="m 14903.7,9893.2 1121.4,-5954.8 h -400.5 l -1476.2,5954.8 h 755.3"
         style="fill:#3d6d97;fill-opacity:1;fill-rule:nonzero;stroke:none"
         id="path42" /><path
         d="m 15031.8,7672.6 h -5023.3 c -30.22,0 -54.97,24.8 -54.97,55 v 267.7 c 0,30.2 24.75,55 54.97,55 h 5023.3 c 30.2,0 55,-24.8 55,-55 v -267.7 c 0,-30.2 -24.8,-55 -55,-55"
         style="fill:#3d6d97;fill-opacity:1;fill-rule:nonzero;stroke:none"
         id="path44" /><path
         d="m 12651.2,10641.5 h -257.4 v 6939.8 h 257.4 v -6939.8"
         style="fill:#6ba4c6;fill-opacity:1;fill-rule:nonzero;stroke:none"
         id="path46" /><path
         d="M 16547.1,17144.1 H 8497.94 l 1147.28,4435.3 h 5754.58 l 1147.3,-4435.3"
         style="fill:#e78917;fill-opacity:1;fill-rule:nonzero;stroke:none"
         id="path48" /><path
         d="M 14082.3,10641.5 H 10958 c -66,0 -120,54 -120,120 v 584.5 c 0,66 54,120 120,120 h 3124.3 c 66,0 120,-54 120,-120 v -584.5 c 0,-66 -54,-120 -120,-120"
         style="fill:#6ba4c6;fill-opacity:1;fill-rule:nonzero;stroke:none"
         id="path50" /><path
         d="m 12716.7,21579.4 -969.5,-4435.3 H 8497.94 l 1147.28,4435.3 h 3071.48"
         style="fill:#f9b13d;fill-opacity:1;fill-rule:nonzero;stroke:none"
         id="path52" /><path
         d="M 21060.4,9046.2 V 3938.4 h 316.2 l 316.3,5369.6 -632.5,-261.8"
         style="fill:#5a131b;fill-opacity:1;fill-rule:nonzero;stroke:none"
         id="path54" /><path
         d="m 32533.4,16223.7 c -1377.2,-8261.4 -9312,-4298.4 -9312,-4298.4 -6163.2,-335.3 -7326.3,810.9 -7413.8,2273.2 -51.2,854.8 265.3,1817.9 165.3,2655.9 -271.6,2271.2 -2152.8,5589.6 -2056.2,6828.6 54.1,692.5 314.6,893 784.3,831.2 0.5,0 0.5,0 0.5,0 167.2,-22 360.9,-77.3 581.4,-155.4 969.8,-343.6 1978.4,-569.6 3004.9,-640.2 2762.3,-190 4489.7,421.2 5328,844.8 925.4,467.3 2059.5,74.9 2484.3,-871.2 3.4,-8.2 6.8,-16 10.6,-24.2 354.2,-805.5 -483.2,-2980.1 -451.3,-3914.2 32.3,-934.1 1981.2,-4429.9 4542.4,-2915.4 2561.2,1514 2331.6,-614.7 2331.6,-614.7"
         style="fill:#f03567;fill-opacity:1;fill-rule:nonzero;stroke:none"
         id="path56" /><path
         d="m 25208.5,18916.2 193.3,-612.1 -1130.5,-231.4 -234.2,853.5 1171.4,-10"
         style="fill:#f14728;fill-opacity:1;fill-rule:nonzero;stroke:none"
         id="path58" /><path
         d="m 27567.2,21785.2 54.5,18.3 c 0,0 973.5,-1397.3 1525.2,-1643 v -48.3 c 0,0 -1753.9,885.5 -1579.7,1673"
         style="fill:#39868c;fill-opacity:1;fill-rule:nonzero;stroke:none"
         id="path60" /><path
         d="m 24467.7,16129.5 c -161.4,-402.5 -1275.3,-591.5 -2255.3,-1047.2 -17.4,-8.2 -34.8,-15.9 -52.2,-23.7 -1014.3,-461.4 -2189.5,-705.5 -2349.9,-40.5 -146,1324 -1007.6,2629.3 -1323.6,3069.5 -72.5,100.5 -116,156.1 -116,156.1 l -2162.5,483.2 c 302,954.4 1159.8,2985.4 1159.8,2985.4 531.5,376 2442.3,1170.9 2442.3,1170.9 l 1903,-480.3 c 1191.6,-73 2367.8,-690.6 2367.8,-690.6 -113.1,-1102.2 386.6,-5582.8 386.6,-5582.8"
         style="fill:#f9b13d;fill-opacity:1;fill-rule:nonzero;stroke:none"
         id="path62" /><path
         d="m 22160.2,15058.6 c -1014.3,-461.4 -2189.5,-705.5 -2349.9,-40.5 -146,1324 -1007.6,2629.3 -1323.6,3069.5 l 198.1,1263.6 c 0,0 692.5,-1433.7 2641.9,-1772 0,0 413.6,-1240 833.5,-2520.6"
         style="fill:#e58616;fill-opacity:1;fill-rule:nonzero;stroke:none"
         id="path64" /><path
         d="m 33628.9,15163 c -54.6,-585.7 -966.5,-936.5 -1383.5,-833.6 -416.5,103 -1222.1,551.9 -1761.4,728.8 -197.1,64.7 -538.3,193.7 -892,332 -614.7,239.6 -1266.6,505.9 -1266.6,505.9 L 28495,16951 c 0,0 422.8,-232.4 1104.7,-142.5 95.7,12.5 196.7,31.4 302,57.9 241.6,30.5 737.4,-223.7 1051.5,-344.5 314.1,-120.8 2730.3,-773.2 2675.7,-1358.9"
         style="fill:#f14728;fill-opacity:1;fill-rule:nonzero;stroke:none"
         id="path66" /><path
         d="m 33628.9,15163 c -54.6,-585.7 -966.5,-936.5 -1383.5,-833.6 -416.5,103 -1222.1,551.9 -1761.4,728.8 -197.1,64.7 -538.3,193.7 -892,332 430,574 254.1,1079.5 7.7,1418.3 95.7,12.5 196.7,31.4 302,57.9 241.6,30.5 737.4,-223.7 1051.5,-344.5 314.1,-120.8 2730.3,-773.2 2675.7,-1358.9"
         style="fill:#b1daca;fill-opacity:1;fill-rule:nonzero;stroke:none"
         id="path68" /><path
         d="m 22356.6,27105 c 0,0 1052.2,33.1 544.5,-1431.6 -203,-519.4 -360.6,-739.2 -360.6,-739.2 0,0 -571.3,1729.9 -183.9,2170.8"
         style="fill:#581519;fill-opacity:1;fill-rule:nonzero;stroke:none"
         id="path70" /><path
         d="m 24081,21712.3 c 0,0 692.6,-1201.4 1127.5,-2796.1 H 24197 c 0,0 -261,1967.9 -116,2796.1"
         style="fill:#f9b13d;fill-opacity:1;fill-rule:nonzero;stroke:none"
         id="path72" /><path
         d="m 21713.3,23375.7 v -972.8 c 0,-141.1 -42.6,-275 -117.5,-386.1 -91.8,-138.2 -232.9,-241.1 -403,-278.4 -17.4,-3.8 -34.8,-7.2 -52.2,-10.1 -699.2,-118.9 -1330.3,445.5 -1330.3,1154.9 v 1107.1 l 1903,-614.6"
         style="fill:#f57a5e;fill-opacity:1;fill-rule:nonzero;stroke:none"
         id="path74" /><path
         d="m 23221.2,21463.2 h -1570.5 c 0,0 -24.2,-863.7 422.8,-1123.5 h 362.4 362.5 c 447,259.8 422.8,1123.5 422.8,1123.5"
         style="fill:#ffffff;fill-opacity:1;fill-rule:nonzero;stroke:none"
         id="path76" /><path
         d="m 31538.9,8188.5 c -757.2,-515.7 -1836.3,-129.1 -1836.3,-129.1 -225.7,2593.6 -859.7,5433.6 -1166,5820.1 -198.6,250.8 -1846,310.8 -2978.2,321.9 -612.8,5.8 -1074.7,-2.4 -1074.7,-2.4 -1376.8,1572.9 -16,1930.5 -16,1930.5 1138,115.5 2271.2,116.9 3242.5,45.9 1262.7,-92.3 2251.9,-307.3 2620.6,-553.3 845.7,-1063.1 1208.1,-7433.6 1208.1,-7433.6"
         style="fill:#3c6c96;fill-opacity:1;fill-rule:nonzero;stroke:none"
         id="path78" /><path
         d="m 28156.3,15610 c -1505.8,-8.2 -2270.3,-876.1 -2597.9,-1408.6 -612.8,5.8 -1286.2,-2.4 -1286.2,-2.4 -1376.7,1572.9 195.5,1930.5 195.5,1930.5 1138,115.5 2271.2,116.9 3242.5,45.9 302.5,-305.9 446.1,-565.4 446.1,-565.4"
         style="fill:#1c3650;fill-opacity:1;fill-rule:nonzero;stroke:none"
         id="path80" /><path
         d="m 33326.9,3939.8 c -422.8,24.2 -1268.5,604.1 -2126.2,773.2 -857.8,169.2 -1256.5,519.5 -1040.5,1111.5 66.3,181.7 91.9,452.3 95.2,740.3 8.3,649.9 -95.2,1387.4 -95.2,1387.4 l 1202.3,134.8 c 94.8,-847.1 294.8,-1309.6 658.7,-1952.8 23.7,-42 48.3,-84.5 73.4,-128.5 410.8,-712.8 1788,-1268.5 1920.9,-1401.4 265.8,-398.7 -265.8,-688.6 -688.6,-664.5"
         style="fill:#f57a5e;fill-opacity:1;fill-rule:nonzero;stroke:none"
         id="path82" /><path
         d="m 21713.3,23375.7 v -972.8 c 0,-141.1 -42.6,-275 -117.5,-386.1 -1510.6,-20.3 -1785.5,1973.5 -1785.5,1973.5 l 1903,-614.6"
         style="fill:#f14728;fill-opacity:1;fill-rule:nonzero;stroke:none"
         id="path84" /><path
         d="m 22093.8,26589.2 c 371.8,-194.1 580.6,-601.8 534,-1018.7 -125.2,-1122.2 -525.4,-3402.3 -1687.9,-2949.5 -1530.2,596 -1369.2,3092.7 -1143.6,3398.8 194.3,263.7 1118.1,1185.2 2297.5,569.4"
         style="fill:#f57a5e;fill-opacity:1;fill-rule:nonzero;stroke:none"
         id="path86" /><path
         d="m 20061.5,25057.3 355.6,616.1 c 0,0 1231.1,17.1 1816,298 584.9,280.9 503.6,1981.3 -411.7,1691.4 -915.3,-290 -998.9,-334.3 -2137.6,-1167.9 0,0 -1112.8,-96.6 50.4,-1908.7 0,0 273.3,169.1 327.3,471.1"
         style="fill:#581519;fill-opacity:1;fill-rule:nonzero;stroke:none"
         id="path88" /><path
         d="m 20003.9,24774.7 c 0,0 -141.1,711.4 -559.6,430.8 -418.5,-280.7 178.7,-1052 421.8,-825.3 164.7,148.9 137.8,394.5 137.8,394.5"
         style="fill:#f57a5e;fill-opacity:1;fill-rule:nonzero;stroke:none"
         id="path90" /><path
         d="m 33326.9,3939.8 c -422.8,24.2 -1268.5,604.1 -2126.2,773.2 -857.8,169.2 -1256.5,519.5 -1040.5,1111.5 66.3,181.7 91.9,452.3 95.2,740.3 545.6,-338.8 1478.7,-828.8 1765.8,-430.6 23.7,-42 48.3,-84.5 73.4,-128.5 410.8,-712.8 1788,-1268.5 1920.9,-1401.4 265.8,-398.7 -265.8,-688.6 -688.6,-664.5"
         style="fill:#b1daca;fill-opacity:1;fill-rule:nonzero;stroke:none"
         id="path92" /><path
         d="m 29146.9,20112.3 v -153.1 l -2325.3,640.3 87.4,163.3 82.2,-16 c 0,0 174.4,710.4 432,1024.5 l 132.9,32.4 c 0,0 785.2,-1333.3 1590.8,-1691.4"
         style="fill:#ffffff;fill-opacity:1;fill-rule:nonzero;stroke:none"
         id="path94" /><path
         d="m 26767,20599.5 -1558.5,-2802.8 2198.7,-543.7 1739.7,2706.2 c 0,0 -1075.2,628.2 -2379.9,640.3"
         style="fill:#39868c;fill-opacity:1;fill-rule:nonzero;stroke:none"
         id="path96" /><path
         d="m 29023.2,20113.8 c -63.8,27.1 -1095,465.8 -2032,633 0,0 174.4,710.4 432,1024.5 0,0 911.9,-1321.2 1600,-1657.5"
         style="fill:#b4d7cd;fill-opacity:1;fill-rule:nonzero;stroke:none"
         id="path98" /><path
         d="m 28156.3,15610 c 0,0 -0.5,0 -1,0 -2113.7,-36.2 -4034.1,652.4 -4034.1,652.4 321.1,-468.7 398.7,-1050 401,-1491.8 2,-387.8 -285.5,-715.8 -669.5,-770.3 -3101.3,-439.9 -3958.6,437.4 -3939.5,812.9 1.9,39.6 21.3,126.1 55.6,249.3 308.3,1110.5 1859,5184.7 3355.1,4377.2 1661.4,-896.9 5122.3,-2295.4 5122.3,-2295.4 314.1,-1051 -289.9,-1534.3 -289.9,-1534.3"
         style="fill:#6ba4c6;fill-opacity:1;fill-rule:nonzero;stroke:none"
         id="path100" /><path
         d="m 24121.2,16262.4 c 321.4,-469.3 398.9,-1051.4 401,-1493.4 1.9,-386.9 -284.9,-714.1 -667.9,-768.5 -3102.6,-440.4 -3960.2,437.2 -3941.1,812.7 1.9,39.6 21.3,126.1 55.6,249.3 2780,-1373.8 3790,2190.5 3790,2190.5 2571.8,-1631.4 4345.8,-1643 4396.5,-1643 -2113.7,-36.2 -4034.1,652.4 -4034.1,652.4"
         style="fill:#356698;fill-opacity:1;fill-rule:nonzero;stroke:none"
         id="path102" /><path
         d="m 27238.3,18070.2 c 21.8,3.4 44.1,3.4 66,0.1 136.2,-20.5 717.2,-110.2 752.8,-152.9 39.7,-47.7 292.6,-307.4 -213.5,-267.6 -13.1,1 -26.8,3.4 -39.6,6.8 -277.8,73.3 -477.1,147.3 -565.6,182.5 -44.2,17.5 -82.7,47.9 -105.8,89.5 -29.3,52.8 -34.8,120.3 105.7,141.6"
         style="fill:#f57a5e;fill-opacity:1;fill-rule:nonzero;stroke:none"
         id="path104" /><path
         d="m 27350.6,17768.7 c 19.3,3 39.1,3 58.5,0.1 121,-18.2 636.9,-97.9 668.5,-135.8 35.3,-42.4 259.9,-273 -189.6,-237.6 -11.6,0.9 -23.8,3.1 -35.1,6 -246.7,65.2 -423.7,130.9 -502.3,162.1 -39.2,15.5 -73.4,42.5 -93.9,79.5 -26,46.9 -30.9,106.8 93.9,125.7"
         style="fill:#f57a5e;fill-opacity:1;fill-rule:nonzero;stroke:none"
         id="path106" /><path
         d="m 22478.4,26232 c 0,0 -604,-537.4 -1682.5,-724.7 0,0 1313.8,75.5 1899.8,576.9 l -217.3,147.8"
         style="fill:#581519;fill-opacity:1;fill-rule:nonzero;stroke:none"
         id="path108" /><path
         d="m 22634.3,26126 c 0,0 69.4,-233.1 -997.7,-618.7 0,0 1087.3,201.3 1296.7,618.7 h -299"
         style="fill:#581519;fill-opacity:1;fill-rule:nonzero;stroke:none"
         id="path110" /><path
         d="m 19391.5,24851.9 c 0,0 66.5,326.2 320.2,241.7 138.9,-54.4 179,-350.4 98.6,-392.7 -80.5,-42.3 -297.2,90.6 -188.8,271.9 0,0 -72.9,96.6 -230,-120.9"
         style="fill:#f14728;fill-opacity:1;fill-rule:nonzero;stroke:none"
         id="path112" /><path
         d="m 15808.1,14199 -0.5,-0.5 c -51.2,854.8 265.3,1817.9 165.3,2655.9 -271.6,2271.2 -2152.8,5589.6 -2056.2,6828.6 54.1,692.5 314.6,893 784.3,831.2 -293.3,-218 -500.6,-628.7 -268.7,-1401.9 507.4,-1691.3 3476.4,-6929.6 1375.8,-8913.3"
         style="fill:#b6223d;fill-opacity:1;fill-rule:nonzero;stroke:none"
         id="path114" /><path
         d="m 15892.3,15069.2 c 437.5,478.3 999.5,825.5 1623.8,999.9 921.1,257.4 2426.5,611.5 4270.7,799.9 3760,384 1505.7,-4420.4 5390.9,-4170.5 1268.5,-22.7 1772.3,-22.7 1772.3,-22.7 l 293.7,-1349.7 c 0,0 -3005,-4407.1 -11099.5,-1655.8 -2156.2,732.9 -3253.2,3137 -2354,5229.4 32,74.5 52.1,114.8 52.1,114.8 l 50,54.7"
         style="fill:#b6223d;fill-opacity:1;fill-rule:nonzero;stroke:none"
         id="path116" /><path
         d="m 25161.4,8548.9 h -6171.7 c -57,0 -103.5,46.6 -103.5,103.5 v 793.5 c 0,56.9 46.5,103.5 103.5,103.5 h 6171.7 c 56.9,0 103.5,-46.6 103.5,-103.5 v -793.5 c 0,-56.9 -46.6,-103.5 -103.5,-103.5"
         style="fill:#5a131b;fill-opacity:1;fill-rule:nonzero;stroke:none"
         id="path118" /><path
         d="M 19329.5,8548.9 17443.1,3938.4 h 446.3 l 2124.7,4610.5 h -684.6"
         style="fill:#5a131b;fill-opacity:1;fill-rule:nonzero;stroke:none"
         id="path120" /><path
         d="m 23243.3,8548.9 452,-4610.5 h -313.2 l -732.4,4610.5 h 593.6"
         style="fill:#c46b47;fill-opacity:1;fill-rule:nonzero;stroke:none"
         id="path122" /><path
         d="m 24931.9,8548.9 1368.2,-4610.5 h -283.3 l -1678.6,4610.5 h 593.7"
         style="fill:#c46b47;fill-opacity:1;fill-rule:nonzero;stroke:none"
         id="path124" /><path
         d="m 20465.9,21179.4 c 0,0 261.9,339.6 356.3,374 94.4,34.3 80.1,-71.6 37.2,-148.8 -42.9,-77.2 -393.5,-225.2 -393.5,-225.2"
         style="fill:#f14728;fill-opacity:1;fill-rule:nonzero;stroke:none"
         id="path126" /><path
         d="m 21768.1,20782.2 c 39.6,-220.6 -105.6,-245.9 -105.6,-245.9 21.3,-265.7 -307.8,-519.6 -307.8,-519.6 -9.2,-72.5 -66.2,-126.2 -241.6,-250.8 -338.3,-290 -1091.2,-286.1 -1091.2,-286.1 -1997.7,-3076.3 -3495.7,-3817.6 -3813.7,-3462.9 -257.1,343.1 -289.4,843.7 -235.3,1319.7 33.8,303 102.9,596.3 170.6,832.6 90.8,317.1 179.2,532.1 179.2,532.1 l 855.9,-188 c 0,0 1828.5,1530.4 2102,1772 274,241.7 959.7,752 1397.6,1036.1 329.7,213.7 777.9,196.2 979.1,174.6 110.1,-11.9 158.7,-147.6 79.5,-225 -13,-12.8 -23.5,-19.2 -23.5,-19.2 46.8,-78.8 63.7,-144.6 64.4,-198.1 1.4,-99.8 -78.9,-181.9 -178.4,-188.5 -165.5,-10.8 -490.8,-35.5 -477,-60.4 285.5,15.5 468.5,32 559.5,41.4 40.9,4.2 79,-23.5 86.3,-64"
         style="fill:#f57a5e;fill-opacity:1;fill-rule:nonzero;stroke:none"
         id="path128" /><path
         d="m 17178.6,18513.3 c 0,0 -583.3,-316 -1205.7,-1176.7 33.8,303 102.9,596.3 170.6,832.6 90.8,317.1 179.2,532.1 179.2,532.1 l 855.9,-188"
         style="fill:#f14728;fill-opacity:1;fill-rule:nonzero;stroke:none"
         id="path130" /><path
         d="m 21713.3,21251.8 c 0,0 -456.3,-7.4 -545,-18.9 -88.6,-11.4 -308.9,-125.8 -308.9,-125.8 l 326.1,85.8 527.8,58.9"
         style="fill:#f14728;fill-opacity:1;fill-rule:nonzero;stroke:none"
         id="path132" /><path
         d="m 21662.5,20536.3 h -306.8 l -257.4,30.1 257.4,-68.7 306.8,38.6"
         style="fill:#f14728;fill-opacity:1;fill-rule:nonzero;stroke:none"
         id="path134" /></g></g></svg>
