<?xml version="1.0" encoding="UTF-8" standalone="no"?>
<svg
   xmlns:dc="http://purl.org/dc/elements/1.1/"
   xmlns:cc="http://creativecommons.org/ns#"
   xmlns:rdf="http://www.w3.org/1999/02/22-rdf-syntax-ns#"
   xmlns:svg="http://www.w3.org/2000/svg"
   xmlns="http://www.w3.org/2000/svg"
   xmlns:sodipodi="http://sodipodi.sourceforge.net/DTD/sodipodi-0.dtd"
   xmlns:inkscape="http://www.inkscape.org/namespaces/inkscape"
   version="1.1"
   id="svg2"
   xml:space="preserve"
   width="3178.6667"
   height="2245.3333"
   viewBox="0 0 3178.6667 2245.3333"
   sodipodi:docname="vecteezy_the-female-character-she-searched-for-books-to-read-from_5611509.eps"><metadata
     id="metadata8"><rdf:RDF><cc:Work
         rdf:about=""><dc:format>image/svg+xml</dc:format><dc:type
           rdf:resource="http://purl.org/dc/dcmitype/StillImage" /></cc:Work></rdf:RDF></metadata><defs
     id="defs6" /><sodipodi:namedview
     pagecolor="#ffffff"
     bordercolor="#666666"
     borderopacity="1"
     objecttolerance="10"
     gridtolerance="10"
     guidetolerance="10"
     inkscape:pageopacity="0"
     inkscape:pageshadow="2"
     inkscape:window-width="640"
     inkscape:window-height="480"
     id="namedview4" /><g
     id="g10"
     inkscape:groupmode="layer"
     inkscape:label="ink_ext_XXXXXX"
     transform="matrix(1.3333333,0,0,-1.3333333,0,2245.3333)"><g
       id="g12"
       transform="scale(0.1)"><path
         d="m 3681.65,12780 c 2273.2,4388.6 10148.55,2619.2 11060.45,2414.3 1523.9,-342.4 4013.2,-928.1 5238.3,-3090.6 641.3,-1131.9 808.7,-2522.85 454.5,-3774.68 C 20080.6,7077.21 19209,5980.3 18069.6,5352.3 16729.2,4613.6 15477,4487 13970.1,4488.2 8748.27,4492.2 6137.49,4441.1 4945.89,5574.7 3145.2,7287.87 2516.86,10531.2 3681.65,12780"
         style="fill:#c7ecf9;fill-opacity:1;fill-rule:nonzero;stroke:none"
         id="path14" /><path
         d="M 16283.1,2339.6 H 10737 c -258,0 -467.1,209.1 -467.1,467.1 V 13969 c 0,258 209.1,467.2 467.1,467.2 h 5546.1 c 258,0 467.1,-209.2 467.1,-467.2 V 2806.7 c 0,-258 -209.1,-467.1 -467.1,-467.1"
         style="fill:#102b5f;fill-opacity:1;fill-rule:nonzero;stroke:none"
         id="path16" /><path
         d="m 16194.7,2535.3 h -5438.8 c -149.1,0 -270,120.9 -270,270 v 10906.5 c 0,163.3 132.4,295.7 295.7,295.7 H 16224 c 152.7,0 276.5,-123.7 276.5,-276.4 V 2841 c 0,-168.8 -136.9,-305.7 -305.8,-305.7"
         style="fill:#ffffff;fill-opacity:1;fill-rule:nonzero;stroke:none"
         id="path18" /><path
         d="m 10698.5,13162.6 h 5609.6 v 90 h -5609.6 z"
         style="fill:#e6e7e8;fill-opacity:1;fill-rule:nonzero;stroke:none"
         id="path20" /><path
         d="m 11141.8,13507.9 -65.8,-66.8 c -8.2,-8.3 -17.2,-12.4 -27,-12.5 h -0.1 c -16.4,0 -28.6,11.9 -29.1,12.5 l -71.8,72.8 c 1.6,2.1 3.3,4.1 5.1,6.1 19.3,21.5 52.3,35.7 89.9,35.7 40.6,0 76.1,-16.6 94.4,-41.1 1.7,-2.2 3.2,-4.4 4.4,-6.7"
         style="fill:#2b3990;fill-opacity:1;fill-rule:nonzero;stroke:none"
         id="path22" /><path
         d="m 11237.4,13604.8 -39.6,-40.2 c -2.3,1.3 -4.6,2.7 -7,4.1 -34.6,20.4 -79,36.6 -131.9,36.6 h -2.3 c -59.7,-0.5 -107.9,-21.3 -143.5,-44.8 -2.2,-1.4 -4.4,-2.9 -6.5,-4.5 l -39.4,39.9 c 2.1,1.6 4.3,3.2 6.5,4.7 43.4,30.8 104.4,59.1 182.4,59.8 h 2.9 c 71,0 128.5,-23.4 171.7,-51.2 2.3,-1.5 4.5,-3 6.7,-4.4"
         style="fill:#2b3990;fill-opacity:1;fill-rule:nonzero;stroke:none"
         id="path24" /><path
         d="m 11305.3,13673.7 c -1.7,1.9 -3.4,3.7 -5.3,5.8 -24,25.7 -64.1,61.2 -119.6,84.7 l -0.5,0.1 c -34.5,14.6 -74.8,24.4 -120.9,24.4 -1,0 -2,0 -2.9,0 -52.9,-0.5 -98.1,-13.7 -135.2,-31.8 l -0.8,-0.4 c -56.9,-27.9 -94.8,-67 -112.8,-88.5 -1.9,-2.3 -3.5,-4.3 -5,-6.2 -1.8,-2.3 -3.4,-4.3 -4.5,-5.9 l 37.1,-27.1 v -0.1 l 7.4,-5.4 c 0.7,1.1 2,2.8 3.9,5.1 18.6,23.1 91.9,104.1 210.4,105.2 h 2.3 c 101.4,0 170.9,-59.5 202.3,-93.6 1.8,-2 3.6,-4 5.2,-5.8 l 38.9,39.5"
         style="fill:#2b3990;fill-opacity:1;fill-rule:nonzero;stroke:none"
         id="path26" /><path
         d="m 11475.2,13398.9 h 60 v 112.5 h -60 z"
         style="fill:#58595b;fill-opacity:1;fill-rule:nonzero;stroke:none"
         id="path28" /><path
         d="m 11592.2,13404.5 h 60 v 218.863 h -60 z"
         style="fill:#58595b;fill-opacity:1;fill-rule:nonzero;stroke:none"
         id="path30" /><path
         d="m 11689,13404.5 h 60 v 284.641 h -60 z"
         style="fill:#58595b;fill-opacity:1;fill-rule:nonzero;stroke:none"
         id="path32" /><path
         d="m 11810.5,13404.5 h 60 v 356.652 h -60 z"
         style="fill:#58595b;fill-opacity:1;fill-rule:nonzero;stroke:none"
         id="path34" /><path
         d="m 12821.5,14210.4 h 1329.8 v 60 h -1329.8 z"
         style="fill:#f1f2f2;fill-opacity:1;fill-rule:nonzero;stroke:none"
         id="path36" /><path
         d="m 16061.5,13405.6 v 5 h -670.1 c -19.8,0 -35.7,16 -35.7,35.7 v 287.6 c 0,19.7 15.9,35.7 35.7,35.7 h 670.1 c 19.7,0 35.7,-16 35.7,-35.7 v -287.6 c 0,-19.7 -16,-35.7 -35.7,-35.7 v -5 -5 c 25.2,0 45.7,20.5 45.7,45.7 v 287.6 c 0,25.3 -20.5,45.7 -45.7,45.7 h -670.1 c -25.3,0 -45.7,-20.4 -45.7,-45.7 v -287.6 c 0,-25.2 20.4,-45.7 45.7,-45.7 h 670.1 v 5"
         style="fill:#58595b;fill-opacity:1;fill-rule:nonzero;stroke:none"
         id="path38" /><path
         d="m 16144.4,13516.4 h -42.2 v 124.9 h 42.2 v -124.9"
         style="fill:#6d6e71;fill-opacity:1;fill-rule:nonzero;stroke:none"
         id="path40" /><path
         d="m 16140.2,13548.5 h 38.8 v 67.5 h -38.8 v -67.5"
         style="fill:#6d6e71;fill-opacity:1;fill-rule:nonzero;stroke:none"
         id="path42" /><path
         d="m 15726.4,13677.9 196.3,-196.4 h -467.4 v 196.4 h 271.1"
         style="fill:#6d6e71;fill-opacity:1;fill-rule:nonzero;stroke:none"
         id="path44" /><path
         d="m 15922.7,11898 h -4870.4 v 288.4 c 0,273.2 221.5,494.7 494.6,494.7 h 3881.2 c 273.2,0 494.6,-221.5 494.6,-494.7 V 11898"
         style="fill:#e2dce4;fill-opacity:1;fill-rule:nonzero;stroke:none"
         id="path46" /><path
         d="m 11863,12386.3 h -612.1 v 36 h 612.1 v -36"
         style="fill:#ffffff;fill-opacity:1;fill-rule:nonzero;stroke:none"
         id="path48" /><path
         d="m 11863,12271.5 h -612.1 v 36 h 612.1 v -36"
         style="fill:#ffffff;fill-opacity:1;fill-rule:nonzero;stroke:none"
         id="path50" /><path
         d="m 11863,12156.8 h -612.1 v 36 h 612.1 v -36"
         style="fill:#ffffff;fill-opacity:1;fill-rule:nonzero;stroke:none"
         id="path52" /><path
         d="m 15726.4,12271.5 c 0,-117 -94.9,-211.9 -211.9,-211.9 -117.1,0 -211.9,94.9 -211.9,211.9 0,117.1 94.8,212 211.9,212 117,0 211.9,-94.9 211.9,-212"
         style="fill:#ffffff;fill-opacity:1;fill-rule:nonzero;stroke:none"
         id="path54" /><path
         d="m 15432.4,3628.9 v 10 h -3889.7 c -132.7,0 -252.8,53.7 -339.7,140.7 -87,86.9 -140.7,206.9 -140.7,339.6 V 11888 h 4850.4 V 4119.2 c 0,-132.7 -53.7,-252.7 -140.6,-339.6 -87,-87 -207,-140.7 -339.7,-140.7 v -10 -10 c 276.3,0 500.3,224 500.3,500.3 V 11908 H 11042.3 V 4119.2 c 0,-276.3 224,-500.3 500.4,-500.3 h 3889.7 v 10"
         style="fill:#e2dce4;fill-opacity:1;fill-rule:nonzero;stroke:none"
         id="path56" /><path
         d="m 11052.3,9076.38 h 4870.4 v 303.773 h -4870.4 z"
         style="fill:#a7a9ac;fill-opacity:1;fill-rule:nonzero;stroke:none"
         id="path58" /><path
         d="m 11074.8,6524.8 h 4870.5 v 303.699 h -4870.5 z"
         style="fill:#a7a9ac;fill-opacity:1;fill-rule:nonzero;stroke:none"
         id="path60" /><path
         d="m 15945.3,3851.6 h -4870.5 v 303.8 h 4870.5 v -303.8"
         style="fill:#a7a9ac;fill-opacity:1;fill-rule:nonzero;stroke:none"
         id="path62" /><path
         d="m 12966.7,10885.5 h -1208.4 c -203.1,0 -367.8,164.7 -367.8,367.9 v 0 c 0,203.2 164.7,367.9 367.8,367.9 h 1208.4 c 203.1,0 367.9,-164.7 367.9,-367.9 v 0 c 0,-203.2 -164.8,-367.9 -367.9,-367.9"
         style="fill:#e2dce4;fill-opacity:1;fill-rule:nonzero;stroke:none"
         id="path64" /><path
         d="m 11557,11044.2 h 1230.8 v 20 H 11557 Z"
         style="fill:#ffffff;fill-opacity:1;fill-rule:nonzero;stroke:none"
         id="path66" /><path
         d="m 12916,11366.4 h -35 c 0,-21.6 -8.6,-40.9 -22.8,-55.2 -14.3,-14.1 -33.6,-22.8 -55.2,-22.8 -21.7,0 -41,8.7 -55.2,22.8 -14.2,14.3 -22.9,33.6 -22.9,55.2 0,21.7 8.7,41 22.9,55.2 14.2,14.2 33.5,22.9 55.2,22.9 21.6,0 40.9,-8.7 55.2,-22.9 14.2,-14.2 22.8,-33.5 22.8,-55.2 h 35 35 c 0.1,40.8 -16.6,78 -43.3,104.7 -26.7,26.8 -64,43.4 -104.7,43.4 -40.8,0 -78.1,-16.6 -104.7,-43.4 -26.8,-26.7 -43.4,-63.9 -43.4,-104.7 0,-40.7 16.6,-78 43.4,-104.7 26.6,-26.7 63.9,-43.3 104.7,-43.3 40.7,0 78,16.6 104.7,43.3 26.7,26.7 43.4,64 43.3,104.7 h -35"
         style="fill:#ffffff;fill-opacity:1;fill-rule:nonzero;stroke:none"
         id="path68" /><path
         d="m 12856.6,11264.6 158.6,-190 c 12.4,-14.9 34.4,-16.9 49.3,-4.5 14.8,12.4 16.8,34.5 4.4,49.3 l -158.6,190.1 c -12.4,14.8 -34.4,16.8 -49.3,4.4 -14.8,-12.4 -16.8,-34.5 -4.4,-49.3"
         style="fill:#ffffff;fill-opacity:1;fill-rule:nonzero;stroke:none"
         id="path70" /><path
         d="m 15022.6,9380.15 h -230.5 v 1386.25 h 230.5 V 9380.15"
         style="fill:#823c34;fill-opacity:1;fill-rule:nonzero;stroke:none"
         id="path72" /><path
         d="m 15022.6,9380.15 h -230.5 v 191.81 h 230.5 v -191.81"
         style="fill:#f06b4e;fill-opacity:1;fill-rule:nonzero;stroke:none"
         id="path74" /><path
         d="m 15022.6,10496.1 h -230.5 v 270.3 h 230.5 v -270.3"
         style="fill:#f06b4e;fill-opacity:1;fill-rule:nonzero;stroke:none"
         id="path76" /><path
         d="m 15413.5,9397.71 h -324.8 v 1455.99 h 324.8 V 9397.71"
         style="fill:#f06b4e;fill-opacity:1;fill-rule:nonzero;stroke:none"
         id="path78" /><path
         d="m 15413.5,10365.4 h -324.8 v 61.1 h 324.8 v -61.1"
         style="fill:#823c34;fill-opacity:1;fill-rule:nonzero;stroke:none"
         id="path80" /><path
         d="m 15413.5,10496.2 h -324.8 v 61.1 h 324.8 v -61.1"
         style="fill:#823c34;fill-opacity:1;fill-rule:nonzero;stroke:none"
         id="path82" /><path
         d="m 15413.5,10653.2 h -324.8 v 61 h 324.8 v -61"
         style="fill:#823c34;fill-opacity:1;fill-rule:nonzero;stroke:none"
         id="path84" /><path
         d="m 13307.4,9388.93 h -290.1 v 1074.87 h 290.1 V 9388.93"
         style="fill:#f06b4e;fill-opacity:1;fill-rule:nonzero;stroke:none"
         id="path86" /><path
         d="m 13307.4,10103.4 h -290.1 v 45 h 290.1 v -45"
         style="fill:#823c34;fill-opacity:1;fill-rule:nonzero;stroke:none"
         id="path88" /><path
         d="m 13307.4,10199.9 h -290.1 v 45 h 290.1 v -45"
         style="fill:#823c34;fill-opacity:1;fill-rule:nonzero;stroke:none"
         id="path90" /><path
         d="m 13307.4,10315.8 h -290.1 v 45 h 290.1 v -45"
         style="fill:#823c34;fill-opacity:1;fill-rule:nonzero;stroke:none"
         id="path92" /><path
         d="m 15740.1,9397.71 h -259.2 v 1386.19 h 259.2 V 9397.71"
         style="fill:#f06b4e;fill-opacity:1;fill-rule:nonzero;stroke:none"
         id="path94" /><path
         d="m 15740.1,10425.4 v -666.94 l -58.1,-0.02 v -55.57 h -137.4 l -13.4,52.32 -50.3,3.25 v 676.76 l 50.3,3.3 6.7,57.7 h 147.5 v -61 l 54.7,-9.8"
         style="fill:#823c34;fill-opacity:1;fill-rule:nonzero;stroke:none"
         id="path96" /><path
         d="m 13554.5,9373.67 h -161.8 v 1386.23 h 161.8 V 9373.67"
         style="fill:#f06b4e;fill-opacity:1;fill-rule:nonzero;stroke:none"
         id="path98" /><path
         d="m 13554.5,10401.4 v -666.98 l -36.2,-0.02 v -55.58 h -85.8 l -8.4,52.32 -31.4,3.26 v 676.8 l 31.4,3.2 4.2,57.8 h 92.1 v -61 l 34.1,-9.8"
         style="fill:#823c34;fill-opacity:1;fill-rule:nonzero;stroke:none"
         id="path100" /><path
         d="m 14328.5,9372.04 h -258 v 1534.46 h 258 V 9372.04"
         style="fill:#f06b4e;fill-opacity:1;fill-rule:nonzero;stroke:none"
         id="path102" /><path
         d="m 14194,9622.66 c 43,0 45.9,44.88 1.4,44.88 -41.1,0 -42.9,-44.88 -1.4,-44.88 z m -53.6,-26.39 c -4.9,15.42 -2.7,28.7 16.3,24.99 -47.7,27.78 -1.4,73.54 38.5,73.54 42.3,0 81.2,-38.83 42.3,-71.77 9,0 50.6,5.3 55.8,0 13.5,-13.75 -0.5,-26.76 -14.1,-26.76 -46.3,0 -92.5,0 -138.8,0"
         style="fill:#c3c1aa;fill-opacity:1;fill-rule:nonzero;stroke:none"
         id="path104" /><path
         d="m 14098.3,9742.77 c 18.7,0 37.4,0 56.1,0 -68.2,53.5 66.4,89.9 96.8,65.05 33.4,-27.35 -36.2,-26.75 -43.4,-26.75 -18.1,0 -82.9,-19.12 -33.2,-35.88 14.4,-4.89 68.6,5.76 76.6,-2.42 22,-22.37 -10.9,-26.76 -23.9,-26.76 -33.5,0 -143.6,-21.55 -129,26.76"
         style="fill:#c3c1aa;fill-opacity:1;fill-rule:nonzero;stroke:none"
         id="path106" /><path
         d="m 14140.4,9822.43 c -13.8,41.27 47.2,42.92 78.6,52.56 -30.7,9.26 -92.2,10.72 -78.6,51.31 34.9,-11.67 69.7,-23.31 104.6,-34.94 14.8,-4.94 34.8,-8.75 44.4,-21.15 13.8,-17.92 11.4,-46.06 -18,-41.31 13.4,62.01 -105.6,2.31 -131,-6.47"
         style="fill:#c3c1aa;fill-opacity:1;fill-rule:nonzero;stroke:none"
         id="path108" /><path
         d="m 14219.6,9933.93 c -14.6,28.03 13,25.2 13,48.41 0,52.46 -28.4,-17.5 -31.2,-24.34 -27.6,-65.89 -111.4,46.6 -34.1,66.9 13.5,-24 -8.2,-24.3 -8.2,-44.29 0,-51.09 26.4,22.59 28.6,27.59 29.1,66.6 116.9,-54.24 31.9,-74.27"
         style="fill:#c3c1aa;fill-opacity:1;fill-rule:nonzero;stroke:none"
         id="path110" /><path
         d="m 14251.2,10051.6 c -14.1,0 -147.9,-10.3 -110.8,26.8 6.4,6.4 59.4,0 69.1,0 26.7,0 52.8,7.9 41.7,-26.8 z m -125.8,0 c -18.6,-4.7 -42.7,6 -27.1,26.8 16,21.3 30.5,-14.7 27.1,-26.8"
         style="fill:#c3c1aa;fill-opacity:1;fill-rule:nonzero;stroke:none"
         id="path112" /><path
         d="m 14195.8,10127.1 c 42.3,0 42.1,49.2 -0.2,49.2 -42.1,0 -41.8,-49.2 0.2,-49.2 z m -1.6,-27.4 c -73.4,0 -73.9,104.1 1.3,104.1 75.6,0 75.5,-104.1 -1.3,-104.1"
         style="fill:#c3c1aa;fill-opacity:1;fill-rule:nonzero;stroke:none"
         id="path114" /><path
         d="m 14251.2,10224.7 c -20.9,0 -187.1,-12.8 -152.9,26.8 6.8,7.8 79.3,0 90.7,0 29.6,0 74.4,13.5 62.2,-26.8"
         style="fill:#c3c1aa;fill-opacity:1;fill-rule:nonzero;stroke:none"
         id="path116" /><path
         d="m 14195.8,10300.1 c 42.3,0 42.1,49.2 -0.2,49.2 -42.1,0 -41.8,-49.2 0.2,-49.2 z m -1.6,-27.3 c -73.4,0 -73.9,104.1 1.3,104.1 75.6,0 75.5,-104.1 -1.3,-104.1"
         style="fill:#c3c1aa;fill-opacity:1;fill-rule:nonzero;stroke:none"
         id="path118" /><path
         d="m 14193.5,10419.2 c 41.7,0 41.9,44.8 0.7,44.8 -41.1,0 -42.3,-44.8 -0.7,-44.8 z m 64.9,-23.9 c -4,28.1 40.5,78.3 -25.2,68.4 42.8,-28.6 3.2,-71.8 -38,-71.8 -41.5,0 -83.7,43.4 -39.3,73.5 -23.4,-2.6 -16.8,25 -12.7,25 28.8,0 57.5,0 86.2,0 24.9,0 54.3,1 63.5,-25.5 9,-25.5 4.2,-71.4 -34.5,-69.6"
         style="fill:#c3c1aa;fill-opacity:1;fill-rule:nonzero;stroke:none"
         id="path120" /><path
         d="m 14140.4,10504.2 c -13.8,41.3 47.2,42.9 78.6,52.6 -30.7,9.3 -92.2,10.7 -78.6,51.3 34.9,-11.7 69.7,-23.3 104.6,-34.9 14.8,-5 34.8,-8.8 44.4,-21.2 13.8,-17.9 11.4,-46.1 -18,-41.3 13.4,62 -105.6,2.3 -131,-6.5"
         style="fill:#c3c1aa;fill-opacity:1;fill-rule:nonzero;stroke:none"
         id="path122" /><path
         d="m 14696.8,9371.56 h -297.4 v 1455.94 h 297.4 V 9371.56"
         style="fill:#f06b4e;fill-opacity:1;fill-rule:nonzero;stroke:none"
         id="path124" /><path
         d="m 14550.6,10340.3 c -43.1,0 -46,-44.9 -1.5,-44.9 41.1,0 43,44.9 1.5,44.9 z m 53.5,26.4 c 5,-15.4 2.7,-28.7 -16.2,-25 47.7,-27.7 1.4,-73.5 -38.5,-73.5 -42.3,0 -81.2,38.8 -42.4,71.7 -8.9,0 -50.5,-5.2 -55.7,0 -13.5,13.8 0.5,26.8 14.1,26.8 46.2,0 92.5,0 138.7,0"
         style="fill:#231f20;fill-opacity:1;fill-rule:nonzero;stroke:none"
         id="path126" /><path
         d="m 14558.3,10187 c 33.3,0.7 33.3,40.1 0,39.8 0,-13.2 0,-26.5 0,-39.8 z m -29.6,1.5 c 0.8,-8.3 -3.4,-18.3 -4.9,-26.6 -58.6,18.7 -33.3,92.8 24.1,92.8 79.9,0 71.5,-95.5 -7.6,-94.2 0,22.3 0,44.5 0,66.8 -25.4,-0.5 -40.1,-31.3 -11.6,-38.8"
         style="fill:#231f20;fill-opacity:1;fill-rule:nonzero;stroke:none"
         id="path128" /><path
         d="m 14548.8,10117.3 c -42.3,0 -42.1,-49.1 0.2,-49.1 42,0 41.8,49.1 -0.2,49.1 z m 1.5,27.4 c 73.4,0 74,-104.1 -1.2,-104.1 -75.6,0 -75.6,104.1 1.2,104.1"
         style="fill:#231f20;fill-opacity:1;fill-rule:nonzero;stroke:none"
         id="path130" /><path
         d="m 14550.6,9994.06 c -43.1,0 -46,-44.88 -1.5,-44.88 41.1,0 43,44.88 1.5,44.88 z m 53.5,26.34 c 5,-15.4 2.7,-28.66 -16.2,-24.95 47.7,-27.75 1.4,-73.54 -38.5,-73.54 -42.3,0 -81.2,38.84 -42.4,71.77 -8.9,0 -50.5,-5.3 -55.7,0 -13.5,13.72 0.5,26.72 14.1,26.72 46.2,0 92.5,0 138.7,0"
         style="fill:#231f20;fill-opacity:1;fill-rule:nonzero;stroke:none"
         id="path132" /><path
         d="m 14493.4,9900.71 c 20.8,0 187.1,12.84 152.8,-26.76 -6.7,-7.82 -79.3,0 -90.6,0 -29.7,0 -74.4,-13.57 -62.2,26.76"
         style="fill:#231f20;fill-opacity:1;fill-rule:nonzero;stroke:none"
         id="path134" /><path
         d="m 14558.3,9786.62 c 33.3,0.72 33.3,40.1 0,39.84 0,-13.29 0,-26.57 0,-39.84 z m -29.6,1.5 c 0.8,-8.35 -3.4,-18.28 -4.9,-26.62 -58.6,18.7 -33.3,92.82 24.1,92.82 79.9,0 71.5,-95.56 -7.6,-94.21 0,22.27 0,44.53 0,66.82 -25.4,-0.57 -40.1,-31.34 -11.6,-38.81"
         style="fill:#231f20;fill-opacity:1;fill-rule:nonzero;stroke:none"
         id="path136" /><path
         d="m 13966.6,11054.5 h -326.7 V 9371.83 h 326.7 v 1682.67"
         style="fill:#f06b4e;fill-opacity:1;fill-rule:nonzero;stroke:none"
         id="path138" /><path
         d="m 13783.5,10559.7 c -27.2,0 -58.8,-33.5 -18.2,-43.2 49,-11.7 69.4,43.2 18.2,43.2 z m -57.9,26.5 c 43,0 86,0 129,0 24.3,0 23.9,3.7 23.9,-19.8 0,-14 -41.3,-6.9 -55,-6.9 39.4,-31.6 -0.6,-71.9 -41.3,-71.9 -41.6,0 -86.9,43.2 -40.3,73.8 -18.9,-3.7 -21.2,9.4 -16.3,24.8"
         style="fill:#091245;fill-opacity:1;fill-rule:nonzero;stroke:none"
         id="path140" /><path
         d="m 13725.6,10399.7 c 5.6,0 11.1,0 16.6,0 -37.4,23.3 -16.1,66.9 24.1,66.9 20.4,4 46.2,0 67.1,0 6.2,0 3,-16.7 3,-19.8 0,-12.1 -13.7,-6.9 -25.4,-6.9 -17.9,0 -65.5,8.2 -65.5,-16.7 0,-27.9 40.9,-21.6 60.6,-21.6 2.7,0 28.1,2.2 30.3,0 2.9,-3 0.8,-26.8 -2.2,-26.8 -29.8,0 -123.2,-19 -108.6,24.9"
         style="fill:#091245;fill-opacity:1;fill-rule:nonzero;stroke:none"
         id="path142" /><path
         d="m 13757.2,10356.5 c 14.6,-28 -13,-25.2 -13,-48.4 0,-52.5 28.4,17.5 31.3,24.4 27.5,65.8 111.3,-46.6 34.1,-66.9 -13.5,23.9 8.2,24.3 8.2,44.3 0,51 -26.5,-22.6 -28.7,-27.7 -29.1,-66.5 -116.8,54.3 -31.9,74.3"
         style="fill:#091245;fill-opacity:1;fill-rule:nonzero;stroke:none"
         id="path144" /><path
         d="m 13725.6,10238.8 c 14.1,0 148,10.3 110.8,-26.7 -6.4,-6.4 -59.4,0 -69.1,0 -26.7,0 -52.8,-7.9 -41.7,26.7 z m 125.8,0 c 18.6,4.7 42.8,-5.9 27.1,-26.7 -16,-21.3 -30.5,14.7 -27.1,26.7"
         style="fill:#091245;fill-opacity:1;fill-rule:nonzero;stroke:none"
         id="path146" /><path
         d="m 13725.6,10092.9 c -14.2,42.6 42.3,25 71.4,27.2 22.5,1.7 27.3,29.3 4.3,36.1 -18.2,5.4 -43.7,2 -62.6,2 -12.8,0 -25.5,15.6 -13.1,26.8 5.9,5.2 47.3,0 55.4,0 17.8,0 35.5,0 53.2,0 1.4,0 11.7,-30 -14.1,-24.9 36.9,-25.9 16.4,-67.2 -25.6,-67.2 -21.2,-3.8 -47.2,0 -68.9,0"
         style="fill:#091245;fill-opacity:1;fill-rule:nonzero;stroke:none"
         id="path148" /><path
         d="m 13790.5,10005.8 c 33.4,0.7 33.3,40.1 0,39.8 0,-13.3 0,-26.6 0,-39.8 z m -29.6,1.5 c 0.8,-8.38 -3.3,-18.31 -4.8,-26.67 -58.7,18.72 -33.3,92.87 24.1,92.87 79.9,0 71.5,-95.59 -7.6,-94.25 0,22.25 0,44.55 0,66.85 -25.4,-0.6 -40.1,-31.4 -11.7,-38.8"
         style="fill:#091245;fill-opacity:1;fill-rule:nonzero;stroke:none"
         id="path150" /><path
         d="m 13757.2,9966.78 c 14.6,-28.02 -13,-25.2 -13,-48.41 0,-52.49 28.4,17.53 31.3,24.39 27.5,65.84 111.3,-46.64 34.1,-66.9 -13.5,23.93 8.2,24.33 8.2,44.26 0,51.1 -26.5,-22.54 -28.7,-27.62 -29.1,-66.54 -116.8,54.27 -31.9,74.28"
         style="fill:#091245;fill-opacity:1;fill-rule:nonzero;stroke:none"
         id="path152" /><path
         d="m 13757.2,9858.47 c 14.6,-28.04 -13,-25.22 -13,-48.41 0,-52.51 28.4,17.53 31.3,24.37 27.5,65.84 111.3,-46.64 34.1,-66.9 -13.5,23.95 8.2,24.33 8.2,44.26 0,51.1 -26.5,-22.54 -28.7,-27.6 -29.1,-66.54 -116.8,54.27 -31.9,74.28"
         style="fill:#091245;fill-opacity:1;fill-rule:nonzero;stroke:none"
         id="path154" /><path
         d="m 15885.8,11153.3 -15.6,135.9 -1173.4,-137.5 15.6,-135.9 1173.4,137.5"
         style="fill:#f06b4e;fill-opacity:1;fill-rule:nonzero;stroke:none"
         id="path156" /><path
         d="m 15050.4,11055.4 -15.6,135.9 -102,-11.9 15.5,-136 102.1,12"
         style="fill:#823c34;fill-opacity:1;fill-rule:nonzero;stroke:none"
         id="path158" /><path
         d="m 14878.2,11035.2 -15.6,135.9 -89.3,-10.4 15.6,-135.9 89.3,10.4"
         style="fill:#823c34;fill-opacity:1;fill-rule:nonzero;stroke:none"
         id="path160" /><path
         d="m 15643.4,11124.9 -15.5,136 -165.8,-19.5 15.5,-135.9 165.8,19.4"
         style="fill:#823c34;fill-opacity:1;fill-rule:nonzero;stroke:none"
         id="path162" /><path
         d="m 15834.7,11147.3 -15.5,136 -127.6,-15 15.6,-135.9 127.5,14.9"
         style="fill:#823c34;fill-opacity:1;fill-rule:nonzero;stroke:none"
         id="path164" /><path
         d="m 15273.4,11167.7 c -75.1,-8.9 -133,-53 -138.3,-102.4 l 296.1,34.7 c -16.4,46.8 -82.6,76.5 -157.8,67.7"
         style="fill:#babb99;fill-opacity:1;fill-rule:nonzero;stroke:none"
         id="path166" /><path
         d="m 15772.5,10839.4 -0.4,161.8 -1322.2,-2.8 0.4,-161.7 1322.2,2.7"
         style="fill:#f06b4e;fill-opacity:1;fill-rule:nonzero;stroke:none"
         id="path168" /><path
         d="m 14766,10909.8 c 0,-17.7 26.3,-38.2 33.8,-11.7 9,31.9 -33.9,45 -33.8,11.7 z m -20.6,-37.6 c -0.1,27.9 -0.2,55.9 -0.2,83.9 -0.1,15.8 -3,15.5 15.4,15.6 11,0 5.5,-26.9 5.5,-35.8 24.7,25.7 56.2,-0.3 56.3,-26.8 0.1,-27 -33.7,-56.6 -57.6,-26.3 2.9,-12.3 -7.4,-13.8 -19.4,-10.6"
         style="fill:#823c34;fill-opacity:1;fill-rule:nonzero;stroke:none"
         id="path170" /><path
         d="m 14891.2,10872.4 c 0,3.6 0,7.2 0,10.8 -18.2,-24.4 -52.3,-10.6 -52.4,15.6 -3.1,13.3 -0.1,30 -0.1,43.7 0,4 13.1,1.9 15.5,1.9 9.5,0.1 5.4,-8.9 5.4,-16.5 0.1,-11.6 -6.3,-42.6 13.2,-42.6 21.8,0.1 16.8,26.7 16.8,39.5 0,1.7 -1.8,18.3 -0.1,19.7 2.3,1.9 21,0.6 21,-1.4 0,-19.4 15,-80.1 -19.3,-70.7"
         style="fill:#823c34;fill-opacity:1;fill-rule:nonzero;stroke:none"
         id="path172" /><path
         d="m 14924.9,10893 c 21.9,9.6 19.7,-8.3 37.8,-8.3 41.1,0.1 -13.7,18.4 -19,20.3 -51.6,17.8 36.2,72.5 52.2,22.3 -18.7,-8.8 -19,5.3 -34.6,5.2 -40,0 17.7,-17.1 21.6,-18.6 52.1,-18.8 -42.2,-76.1 -58,-20.9"
         style="fill:#823c34;fill-opacity:1;fill-rule:nonzero;stroke:none"
         id="path174" /><path
         d="m 15017,10872.7 c -0.1,9.2 -8.3,96.3 20.7,72.1 5,-4.1 0.1,-38.6 0.1,-44.9 0.1,-17.4 6.2,-34.4 -20.8,-27.2 z m -0.2,81.9 c -3.7,12.1 4.6,27.8 20.8,17.6 16.7,-10.3 -11.4,-19.8 -20.8,-17.6"
         style="fill:#823c34;fill-opacity:1;fill-rule:nonzero;stroke:none"
         id="path176" /><path
         d="m 15131,10872.9 c -33.2,-9.3 -19.6,27.5 -21.3,46.4 -1.4,14.7 -22.9,17.8 -28.2,2.8 -4.2,-11.9 -1.6,-28.5 -1.5,-40.8 0,-8.3 -12.2,-16.6 -20.9,-8.5 -4.2,3.8 -0.1,30.8 -0.1,36 0,11.6 -0.1,23.1 -0.1,34.7 0,0.9 23.4,7.6 19.4,-9.2 20.3,24 52.6,10.8 52.7,-16.6 3,-13.8 0,-30.6 0,-44.8"
         style="fill:#823c34;fill-opacity:1;fill-rule:nonzero;stroke:none"
         id="path178" /><path
         d="m 15199.1,10915.3 c -0.7,21.7 -31.5,21.6 -31.2,-0.1 10.4,0.1 20.8,0.1 31.2,0.1 z m -1.2,-19.3 c 6.6,0.6 14.3,-2.1 20.9,-3.1 -14.6,-38.2 -72.5,-21.8 -72.6,15.6 -0.2,52 74.6,46.7 73.6,-4.8 -17.4,0 -34.8,-0.1 -52.2,-0.1 0.5,-16.6 24.5,-26.1 30.3,-7.6"
         style="fill:#823c34;fill-opacity:1;fill-rule:nonzero;stroke:none"
         id="path180" /><path
         d="m 15229.6,10893.7 c 21.9,9.6 19.7,-8.4 37.9,-8.4 41,0.1 -13.8,18.5 -19.1,20.3 -51.6,17.8 36.2,72.5 52.2,22.3 -18.7,-8.8 -19,5.3 -34.6,5.3 -40,-0.1 17.6,-17.2 21.6,-18.6 52.1,-18.9 -42.2,-76.2 -58,-20.9"
         style="fill:#823c34;fill-opacity:1;fill-rule:nonzero;stroke:none"
         id="path182" /><path
         d="m 15314.3,10893.8 c 21.9,9.6 19.7,-8.3 37.8,-8.3 41.1,0.1 -13.7,18.4 -19.1,20.3 -51.5,17.8 36.3,72.5 52.3,22.3 -18.7,-8.8 -19.1,5.3 -34.6,5.2 -40,0 17.6,-17.1 21.6,-18.6 52.1,-18.8 -42.2,-76.1 -58,-20.9"
         style="fill:#823c34;fill-opacity:1;fill-rule:nonzero;stroke:none"
         id="path184" /><path
         d="m 14488.2,6873.44 h -274.3 v 1807.82 h 274.3 V 6873.44"
         style="fill:#823c34;fill-opacity:1;fill-rule:nonzero;stroke:none"
         id="path186" /><path
         d="m 14488.2,6873.44 h -274.3 v 250.15 h 274.3 v -250.15"
         style="fill:#f06b4e;fill-opacity:1;fill-rule:nonzero;stroke:none"
         id="path188" /><path
         d="m 14488.2,8328.81 h -274.3 v 352.45 h 274.3 v -352.45"
         style="fill:#f06b4e;fill-opacity:1;fill-rule:nonzero;stroke:none"
         id="path190" /><path
         d="m 14953.4,6896.35 h -386.6 v 1898.78 h 386.6 V 6896.35"
         style="fill:#f06b4e;fill-opacity:1;fill-rule:nonzero;stroke:none"
         id="path192" /><path
         d="m 14953.4,8158.43 h -386.6 v 79.58 h 386.6 v -79.58"
         style="fill:#823c34;fill-opacity:1;fill-rule:nonzero;stroke:none"
         id="path194" /><path
         d="m 14953.4,8328.98 h -386.6 v 79.56 h 386.6 v -79.56"
         style="fill:#823c34;fill-opacity:1;fill-rule:nonzero;stroke:none"
         id="path196" /><path
         d="m 14953.4,8533.64 h -386.6 v 79.59 h 386.6 v -79.59"
         style="fill:#823c34;fill-opacity:1;fill-rule:nonzero;stroke:none"
         id="path198" /><path
         d="m 15342,6896.35 h -308.4 V 8704.17 H 15342 V 6896.35"
         style="fill:#f06b4e;fill-opacity:1;fill-rule:nonzero;stroke:none"
         id="path200" /><path
         d="m 15342,8236.59 v -869.77 l -69.1,-0.02 v -72.48 h -163.5 l -16,68.23 -59.8,4.25 v 882.61 l 59.8,4.24 8,75.33 h 175.5 l -0.1,-79.57 65.2,-12.82"
         style="fill:#823c34;fill-opacity:1;fill-rule:nonzero;stroke:none"
         id="path202" /><path
         d="m 15859.9,6873.44 h -420.7 v 2148.94 h 420.7 V 6873.44"
         style="fill:#f06b4e;fill-opacity:1;fill-rule:nonzero;stroke:none"
         id="path204" /><path
         d="m 15597.6,7562.9 c -6,20.72 -3.1,34.57 18,32.08 -13.4,10.47 -20.4,24.19 -21,41.14 0,44.48 26.9,14.18 5.2,56.05 -19.2,37.25 10.5,64.7 45.4,64.7 36.5,7.65 84.2,13.19 84.2,-25.84 0,-23.78 -80.2,0.3 -100.7,-12.65 -55.2,-35.81 87.9,-40.89 96,-40.89 9.1,0 8.1,-34.88 0.7,-34.88 -21.4,0 -42.8,0 -64.2,0 -58.6,0 -40.3,-44.81 8.9,-44.81 9.5,0 53.4,6.24 59.3,0 8.6,-8.97 3.8,-34.9 -9.7,-34.9 -40.7,0 -81.4,0 -122.1,0"
         style="fill:#aca973;fill-opacity:1;fill-rule:nonzero;stroke:none"
         id="path206" /><path
         d="m 15663.5,7819.02 c 50.3,0 50.1,64.16 -0.2,64.16 -50.1,0 -49.8,-64.16 0.2,-64.16 z m -1.8,-35.73 c -87.4,0 -88.1,135.77 1.4,135.77 90,0 89.9,-135.77 -1.4,-135.77"
         style="fill:#aca973;fill-opacity:1;fill-rule:nonzero;stroke:none"
         id="path208" /><path
         d="m 15729.4,7946.39 c -24.8,0 -222.6,-16.78 -181.9,34.9 8,10.19 94.4,0 107.9,0 35.3,0 88.5,17.67 74,-34.9"
         style="fill:#aca973;fill-opacity:1;fill-rule:nonzero;stroke:none"
         id="path210" /><path
         d="m 15652.2,8095.19 c -39.7,-0.97 -39.6,-52.31 0,-51.98 0,17.33 0,34.66 0,51.98 z m 35.2,-1.99 c -0.9,10.91 4,23.86 5.8,34.73 69.8,-24.39 39.7,-121.05 -28.7,-121.05 -95.1,0 -85.1,124.61 9,122.87 0,-29.06 0,-58.1 0,-87.15 30.3,0.73 47.8,40.87 13.9,50.6"
         style="fill:#aca973;fill-opacity:1;fill-rule:nonzero;stroke:none"
         id="path212" /><path
         d="m 15636.5,8273 c 16.8,-32.64 -45.5,-86.65 24.7,-86.65 78.7,0 6.2,54.07 23.4,88.47 77.1,-17.37 52.9,-124.2 -21,-124.2 -69.5,0 -100.3,100.95 -27.1,122.38"
         style="fill:#aca973;fill-opacity:1;fill-rule:nonzero;stroke:none"
         id="path214" /><path
         d="m 15729.4,8386.15 c -6.5,0 -13.1,0 -19.7,0 44.5,-30.38 19.2,-87.31 -28.7,-87.31 -24.3,-5.21 -54.9,0 -79.8,0 -7.4,0 -3.6,21.85 -3.6,25.85 0,15.86 16.4,9.05 30.3,9.05 21.3,0 77.9,-10.77 77.9,21.76 0,36.4 -48.7,28.18 -72.2,28.18 -3.1,0 -33.3,-2.93 -36,0 -3.5,3.82 -1,34.89 2.6,34.89 35.5,0 146.6,24.77 129.2,-32.42"
         style="fill:#aca973;fill-opacity:1;fill-rule:nonzero;stroke:none"
         id="path216" /><path
         d="m 15729.4,8454.67 c -24.8,0 -222.6,-16.78 -181.9,34.89 8,10.19 94.4,0 107.9,0 35.3,0 88.5,17.67 74,-34.89"
         style="fill:#aca973;fill-opacity:1;fill-rule:nonzero;stroke:none"
         id="path218" /><path
         d="m 15652.2,8603.46 c -39.7,-0.97 -39.6,-52.31 0,-51.97 0,17.32 0,34.64 0,51.97 z m 35.2,-1.98 c -0.9,10.89 4,23.84 5.8,34.72 69.8,-24.39 39.7,-121.05 -28.7,-121.05 -95.1,0 -85.1,124.62 9,122.87 0,-29.06 0,-58.1 0,-87.15 30.3,0.72 47.8,40.86 13.9,50.61"
         style="fill:#aca973;fill-opacity:1;fill-rule:nonzero;stroke:none"
         id="path220" /><path
         d="m 15691.9,8654.26 c -17.5,36.56 15.4,32.89 15.4,63.13 0,68.47 -33.8,-22.82 -37.2,-31.75 -32.7,-85.9 -132.5,60.78 -40.6,87.2 16.1,-31.18 -9.7,-31.69 -9.7,-57.69 0,-66.64 31.4,29.38 34.1,36 34.6,86.79 139,-70.77 38,-96.89"
         style="fill:#aca973;fill-opacity:1;fill-rule:nonzero;stroke:none"
         id="path222" /><path
         d="m 15791.8,7123.59 h -307 v 227.44 h 307 v -227.44"
         style="fill:#823c34;fill-opacity:1;fill-rule:nonzero;stroke:none"
         id="path224" /><path
         d="m 13835.9,8055.63 c 0,0 121.8,-112.82 302.4,-67.68 l -216.7,-1051.54 c 0,0 -171.5,-194.01 -293.3,18.06"
         style="fill:#c0bb9f;fill-opacity:1;fill-rule:nonzero;stroke:none"
         id="path226" /><path
         d="m 13779.1,6828.5 c -7.8,0 -15.5,0.7 -23.1,1.9 -94.1,15.02 -141.4,117.6 -143.4,121.95 l -3.4,7.6 200,1136.49 53.4,-9.39 -197,-1119.35 c 10.7,-19.75 45.4,-75.44 99.2,-83.9 43.3,-6.83 92.3,18.17 145.3,74.39 l 215.1,1102.63 53.2,-10.37 -218.1,-1117.67 -5.1,-5.61 c -60,-65.56 -119.1,-98.67 -176.1,-98.67"
         style="fill:#823c34;fill-opacity:1;fill-rule:nonzero;stroke:none"
         id="path228" /><path
         d="m 13788,5474.2 -0.6,275.1 2042.3,4.6 0.6,-275.2 -2042.3,-4.5"
         style="fill:#f06b4e;fill-opacity:1;fill-rule:nonzero;stroke:none"
         id="path230" /><path
         d="m 14930.6,5566.7 -0.2,95.2 582,1.3 0.2,-95.3 -582,-1.2"
         style="fill:#823c34;fill-opacity:1;fill-rule:nonzero;stroke:none"
         id="path232" /><path
         d="m 14016.2,5566.7 -0.2,95.2 582,1.3 0.2,-95.3 -582,-1.2"
         style="fill:#823c34;fill-opacity:1;fill-rule:nonzero;stroke:none"
         id="path234" /><path
         d="m 15693.4,5146.2 -0.6,296.4 -1904.8,-4.3 0.6,-296.4 1904.8,4.3"
         style="fill:#f06b4e;fill-opacity:1;fill-rule:nonzero;stroke:none"
         id="path236" /><path
         d="m 15598.7,4866.8 -0.5,243.3 -1809.6,-4 0.6,-243.4 1809.5,4.1"
         style="fill:#f06b4e;fill-opacity:1;fill-rule:nonzero;stroke:none"
         id="path238" /><path
         d="m 15740.2,4177 0.3,338.6 -1947.1,2 -0.4,-338.6 1947.2,-2"
         style="fill:#f06b4e;fill-opacity:1;fill-rule:nonzero;stroke:none"
         id="path240" /><path
         d="m 14353.9,4178.4 0.4,338.6 -169.4,0.2 -0.3,-338.6 169.3,-0.2"
         style="fill:#823c34;fill-opacity:1;fill-rule:nonzero;stroke:none"
         id="path242" /><path
         d="m 14068.2,4178.7 0.3,338.7 -148.1,0.1 -0.4,-338.6 148.2,-0.2"
         style="fill:#823c34;fill-opacity:1;fill-rule:nonzero;stroke:none"
         id="path244" /><path
         d="m 15338,4177.3 0.4,338.7 -275.2,0.3 -0.3,-338.7 275.1,-0.3"
         style="fill:#823c34;fill-opacity:1;fill-rule:nonzero;stroke:none"
         id="path246" /><path
         d="m 15655.5,4177 0.4,338.7 -211.7,0.2 -0.4,-338.7 211.7,-0.2"
         style="fill:#823c34;fill-opacity:1;fill-rule:nonzero;stroke:none"
         id="path248" /><path
         d="m 14740.4,4389.7 c -124.7,0.1 -227.8,-91.7 -245.9,-211.4 l 491.3,-0.6 c -17.8,119.8 -120.7,211.8 -245.4,212"
         style="fill:#babb99;fill-opacity:1;fill-rule:nonzero;stroke:none"
         id="path250" /><path
         d="m 15842.8,4560.4 -0.6,275.2 -2053,-4.6 0.7,-275.2 2052.9,4.6"
         style="fill:#f06b4e;fill-opacity:1;fill-rule:nonzero;stroke:none"
         id="path252" /><path
         d="m 14280,4680.2 c 0.1,-30.1 40.9,-65 52.5,-20 14.1,54.3 -52.6,76.7 -52.5,20 z m -32,-64.1 c -0.1,47.6 -0.2,95.2 -0.3,142.8 0,26.9 -4.5,26.5 24,26.5 17,0.1 8.5,-45.6 8.6,-60.9 38.3,43.8 87.2,-0.4 87.3,-45.5 0.1,-46.1 -52.2,-96.3 -89.4,-44.8 4.5,-21 -11.5,-23.5 -30.2,-18.1"
         style="fill:#823c34;fill-opacity:1;fill-rule:nonzero;stroke:none"
         id="path254" /><path
         d="m 14474.5,4616.6 c 0,6.1 -0.1,12.2 -0.1,18.3 -28.2,-41.5 -81.2,-18 -81.3,26.6 -4.9,22.5 -0.1,51.1 -0.2,74.2 0,6.9 20.4,3.4 24.1,3.4 14.7,0.1 8.4,-15.2 8.5,-28.1 0,-19.8 -9.9,-72.5 20.4,-72.5 33.9,0.1 26.1,45.3 26.1,67.2 0,3 -2.8,31.1 -0.1,33.6 3.5,3.2 32.5,1 32.5,-2.4 0,-33 23.3,-136.4 -29.9,-120.3"
         style="fill:#823c34;fill-opacity:1;fill-rule:nonzero;stroke:none"
         id="path256" /><path
         d="m 14526.8,4651.6 c 34,16.4 30.6,-14.2 58.7,-14.1 63.8,0.1 -21.3,31.3 -29.6,34.5 -80,30.3 56.3,123.4 81.1,37.9 -29,-15 -29.5,9 -53.7,9 -62,-0.1 27.4,-29.2 33.6,-31.7 80.8,-32 -65.6,-129.5 -90.1,-35.6"
         style="fill:#823c34;fill-opacity:1;fill-rule:nonzero;stroke:none"
         id="path258" /><path
         d="m 14669.7,4617 c 0,15.6 -12.9,163.8 32.2,122.8 7.8,-7.1 0.2,-65.8 0.2,-76.5 0.1,-29.6 9.7,-58.5 -32.4,-46.3 z m -0.3,139.3 c -5.7,20.6 7.1,47.4 32.4,30.1 25.9,-17.7 -17.7,-33.8 -32.4,-30.1"
         style="fill:#823c34;fill-opacity:1;fill-rule:nonzero;stroke:none"
         id="path260" /><path
         d="m 14846.8,4617.4 c -51.6,-15.8 -30.5,46.8 -33.1,79 -2.1,24.9 -35.6,30.2 -43.8,4.7 -6.6,-20.3 -2.4,-48.5 -2.4,-69.4 0.1,-14.1 -18.9,-28.2 -32.4,-14.5 -6.4,6.5 -0.1,52.4 -0.2,61.3 0,19.7 0,39.3 -0.1,58.9 0,1.6 36.3,13.1 30.2,-15.5 31.4,40.9 81.6,18.3 81.7,-28.2 4.7,-23.5 0.1,-52.2 0.1,-76.3"
         style="fill:#823c34;fill-opacity:1;fill-rule:nonzero;stroke:none"
         id="path262" /><path
         d="m 14952.5,4689.6 c -1,36.9 -48.8,36.7 -48.4,-0.2 16.1,0.1 32.2,0.1 48.4,0.2 z m -1.8,-32.8 c 10.1,0.8 22.2,-3.7 32.3,-5.4 -22.6,-65 -112.6,-37.1 -112.7,26.5 -0.2,88.5 115.8,79.4 114.4,-8.1 -27.1,-0.1 -54.1,-0.2 -81.2,-0.2 0.8,-28.2 38.2,-44.4 47.2,-12.8"
         style="fill:#823c34;fill-opacity:1;fill-rule:nonzero;stroke:none"
         id="path264" /><path
         d="m 14999.8,4652.7 c 34,16.3 30.7,-14.2 58.8,-14.2 63.7,0.2 -21.3,31.4 -29.6,34.5 -80,30.4 56.3,123.5 81.1,38 -29.1,-15 -29.6,9 -53.8,9 -62,-0.2 27.5,-29.3 33.6,-31.7 80.9,-32.1 -65.6,-129.6 -90.1,-35.6"
         style="fill:#823c34;fill-opacity:1;fill-rule:nonzero;stroke:none"
         id="path266" /><path
         d="m 15131.3,4653 c 34,16.3 30.6,-14.2 58.8,-14.2 63.7,0.2 -21.3,31.3 -29.7,34.5 -79.9,30.3 56.4,123.5 81.1,38 -29,-15 -29.5,9 -53.7,8.9 -62,-0.1 27.4,-29.2 33.6,-31.6 80.8,-32.1 -65.6,-129.6 -90.1,-35.6"
         style="fill:#823c34;fill-opacity:1;fill-rule:nonzero;stroke:none"
         id="path268" /><path
         d="m 13330.6,4196.9 h -327.4 V 5786 h 327.4 V 4196.9"
         style="fill:#f06b4e;fill-opacity:1;fill-rule:nonzero;stroke:none"
         id="path270" /><path
         d="m 13330.6,5429.7 h -327.4 v 101.2 h 327.4 v -101.2"
         style="fill:#823c34;fill-opacity:1;fill-rule:nonzero;stroke:none"
         id="path272" /><path
         d="m 13330.6,5193.4 h -327.4 v 101.2 h 327.4 v -101.2"
         style="fill:#823c34;fill-opacity:1;fill-rule:nonzero;stroke:none"
         id="path274" /><path
         d="m 13330.6,4954.3 h -327.4 v 101.3 h 327.4 v -101.3"
         style="fill:#823c34;fill-opacity:1;fill-rule:nonzero;stroke:none"
         id="path276" /><path
         d="m 13330.6,4715.3 h -327.4 v 101.2 h 327.4 v -101.2"
         style="fill:#823c34;fill-opacity:1;fill-rule:nonzero;stroke:none"
         id="path278" /><path
         d="m 13330.6,4452.3 h -327.4 v 101.2 h 327.4 v -101.2"
         style="fill:#823c34;fill-opacity:1;fill-rule:nonzero;stroke:none"
         id="path280" /><path
         d="m 13721,4196.9 h -327.4 V 5795.7 H 13721 V 4196.9"
         style="fill:#f06b4e;fill-opacity:1;fill-rule:nonzero;stroke:none"
         id="path282" /><path
         d="m 13663.2,5140.7 h -211.9 v 587.5 h 211.9 v -587.5"
         style="fill:#823c34;fill-opacity:1;fill-rule:nonzero;stroke:none"
         id="path284" /><path
         d="m 13663.2,4620.7 h -211.9 v 443 h 211.9 v -443"
         style="fill:#823c34;fill-opacity:1;fill-rule:nonzero;stroke:none"
         id="path286" /><path
         d="m 12450.7,4196.9 h -152.5 v 1365.2 h 152.5 V 4196.9"
         style="fill:#f06b4e;fill-opacity:1;fill-rule:nonzero;stroke:none"
         id="path288" /><path
         d="m 12450.7,4351 h -152.5 v 700.7 h 152.5 V 4351"
         style="fill:#823c34;fill-opacity:1;fill-rule:nonzero;stroke:none"
         id="path290" /><path
         d="m 13008.8,4252.6 -303,-56.4 -292.4,1571.7 302.9,56.4 292.5,-1571.7"
         style="fill:#f06b4e;fill-opacity:1;fill-rule:nonzero;stroke:none"
         id="path292" /><path
         d="m 12675.7,5493.4 c -23.9,-14.2 -15.9,17.6 -25.7,15.8 -14.4,-2.7 -56.8,1.2 -42,-28.1 -27,-20.6 -35.7,38 -13.7,46.8 16.8,7.4 37.6,3 54,11 4.7,2.3 -9.3,12.1 2.2,14.2 22,4.1 5.4,-6.4 16.1,-10.8 18,-7.3 21.8,6.6 36.2,-23.4 -16.1,-3 -38.3,2.2 -27.1,-25.5"
         style="fill:#823c34;fill-opacity:1;fill-rule:nonzero;stroke:none"
         id="path294" /><path
         d="m 12655.4,5401.7 c 26.1,5.6 18.1,48.4 -8,43.3 2.7,-14.5 5.4,-28.9 8,-43.3 z m -23.5,-2.7 c 2.3,-9 1,-20.4 1.5,-29.6 -49.8,11.8 -44.9,95.9 0.3,104.3 62.7,11.6 75.4,-93.4 13,-103.4 -4.5,24.2 -9,48.4 -13.5,72.6 -19.9,-4.4 -25.2,-39.9 -1.3,-43.9"
         style="fill:#823c34;fill-opacity:1;fill-rule:nonzero;stroke:none"
         id="path296" /><path
         d="m 12693.3,5255.5 c -16.2,25.1 16.6,77.7 -29.7,69.1 -52,-9.6 4.2,-45.7 -1.8,-76.5 -53.6,5.1 -54.1,96.9 -5.4,106 45.9,8.5 81.8,-71.8 36.9,-98.6"
         style="fill:#823c34;fill-opacity:1;fill-rule:nonzero;stroke:none"
         id="path298" /><path
         d="m 12761.5,5215.3 c -14.7,-2.8 -29.4,-5.5 -44,-8.2 64.3,-48.2 -34.1,-107.3 -63,-84.8 -31.8,24.8 23,34.3 28.7,35.4 14.3,2.7 61.2,32.8 18.9,43.8 -12.4,3.3 -52.7,-16.2 -60.7,-8.5 -21.8,21.1 3.2,30.6 13.4,32.5 26.3,4.9 108.4,44.4 106.7,-10.2"
         style="fill:#823c34;fill-opacity:1;fill-rule:nonzero;stroke:none"
         id="path300" /><path
         d="m 12678.5,4993.1 c -19.8,44.2 28.2,33.4 50.5,39.9 17.4,5.1 15.6,35.8 -3.9,39.8 -15.3,3.3 -34.7,-4.1 -49.6,-6.9 -10,-1.8 -23.1,13.3 -15.6,27.2 3.6,6.6 37.2,6.9 43.5,8.1 14,2.5 27.9,5.1 41.8,7.7 1.1,0.2 15.2,-30.8 -6,-29 34.1,-22.8 26.3,-70.7 -6.7,-76.8 -15.9,-7.2 -37,-6.9 -54,-10"
         style="fill:#823c34;fill-opacity:1;fill-rule:nonzero;stroke:none"
         id="path302" /><path
         d="m 12731.7,4948.5 c -33.2,-6.1 -23.1,-59.5 10.1,-53.4 33.1,6.1 22.9,59.5 -10.1,53.4 z m -4.3,30 c 57.7,10.7 79.2,-102.3 20,-113.3 -59.4,-11 -80.3,102.1 -20,113.3"
         style="fill:#823c34;fill-opacity:1;fill-rule:nonzero;stroke:none"
         id="path304" /><path
         d="m 12707.9,4834.4 c 16.4,3 144.4,41.2 125.5,-6.8 -3.8,-9.5 -62.3,-11.6 -71.3,-13.2 -23.2,-4.4 -55.6,-25.6 -54.2,20"
         style="fill:#823c34;fill-opacity:1;fill-rule:nonzero;stroke:none"
         id="path306" /><path
         d="m 12766.6,4760.5 c -33.2,-6.1 -23.2,-59.6 10.1,-53.4 33,6.1 22.9,59.5 -10.1,53.4 z m -4.3,30 c 57.7,10.7 79.1,-102.3 20,-113.3 -59.4,-11 -80.3,102.1 -20,113.3"
         style="fill:#823c34;fill-opacity:1;fill-rule:nonzero;stroke:none"
         id="path308" /><path
         d="m 12792.4,4631.5 c -32.7,-6.1 -23.9,-54.7 8.4,-48.7 32.3,6 24.3,54.7 -8.4,48.7 z m -55.8,16.5 c 8.8,-29.9 -16.1,-90.9 33.6,-70.6 -39.4,24.9 -17,77.6 15.4,83.6 32.6,6 74.4,-35 45.6,-74.2 17.9,6.2 18.3,-24.7 15.1,-25.2 -22.6,-4.2 -45.2,-8.4 -67.8,-12.6 -19.5,-3.6 -42.4,-9 -55,18.4 -12.2,26.4 -17.7,76.9 13.1,80.6"
         style="fill:#823c34;fill-opacity:1;fill-rule:nonzero;stroke:none"
         id="path310" /><path
         d="m 12851.2,4546.9 c 19.2,-42.8 -28.4,-53.5 -51.2,-68.5 26.1,-5.6 74.7,1.8 72.1,-44.3 -29.7,7.6 -59.4,15.2 -89.1,22.7 -12.7,3.3 -29.2,4.5 -39.2,16.5 -14.4,17.5 -18.2,48.4 5.8,47.5 2,-69.3 83.4,12.9 101.6,26.1"
         style="fill:#823c34;fill-opacity:1;fill-rule:nonzero;stroke:none"
         id="path312" /><path
         d="m 14066.1,4866.8 h -71.7 v 236.7 h 71.7 v -236.7"
         style="fill:#823c34;fill-opacity:1;fill-rule:nonzero;stroke:none"
         id="path314" /><path
         d="m 14366.4,4866.8 h -71.7 v 236.7 h 71.7 v -236.7"
         style="fill:#823c34;fill-opacity:1;fill-rule:nonzero;stroke:none"
         id="path316" /><path
         d="m 14689.2,4866.8 h -71.7 v 236.7 h 71.7 v -236.7"
         style="fill:#823c34;fill-opacity:1;fill-rule:nonzero;stroke:none"
         id="path318" /><path
         d="m 15034.3,4866.8 h -71.7 v 236.7 h 71.7 v -236.7"
         style="fill:#823c34;fill-opacity:1;fill-rule:nonzero;stroke:none"
         id="path320" /><path
         d="m 12176.9,1095.6 c -3536.02,0 -6402.58,423.8 -6402.58,946.7 0,424.6 1890.8,784 4495.58,904 v -139.6 c 0,-258 209.1,-467.1 467.1,-467.1 h 533.3 c 38.3,-51.2 85.8,-106.2 144.9,-164.1 302.9,-296.9 863.7,-560.8 863.7,-560.8 -278.3,135.8 -398.3,460.9 -449.9,724.9 h 4454.1 c 223.6,0 410.5,157 456.3,366.9 1138.1,-170.9 1840.1,-405.4 1840.1,-664.2 0,-522.9 -2866.5,-946.7 -6402.6,-946.7"
         style="fill:#e8e9ea;fill-opacity:1;fill-rule:nonzero;stroke:none"
         id="path322" /><path
         d="M 16283.1,2339.6 H 11829 c -14,71.3 -23,138.2 -28.8,195.7 h 4394.5 c 134.5,0 248.7,86.8 289.6,207.4 87.3,-11.7 172.3,-23.8 255.1,-36.2 -45.8,-209.9 -232.7,-366.9 -456.3,-366.9 m -5012.8,0 H 10737 c -258,0 -467.1,209.1 -467.1,467.1 v 139.6 c 71.5,3.3 143.5,6.4 216,9.3 v -150.3 c 0,-149.1 120.9,-270 270,-270 h 398.9 c 23.3,-54.5 59.5,-120.9 115.5,-195.7"
         style="fill:#0e2757;fill-opacity:1;fill-rule:nonzero;stroke:none"
         id="path324" /><path
         d="m 16194.7,2535.3 h -4394.5 c -11.5,114.8 -10.1,192 -10.1,192 0,0 36.9,97.8 95.1,260.7 96.7,0.6 194,1 291.7,1 1658.6,0 3170.1,-93.3 4307.4,-246.3 -40.9,-120.6 -155.1,-207.4 -289.6,-207.4 m -5039.9,0 h -398.9 c -149.1,0 -270,120.9 -270,270 v 150.3 c 205.6,8.3 415.6,15.1 628.9,20.4 l 65.5,-129.3 c -53.6,-93.3 -68,-152.5 -68,-152.5 0,0 0.1,-59.8 42.5,-158.9"
         style="fill:#e8e9e9;fill-opacity:1;fill-rule:nonzero;stroke:none"
         id="path326" /><path
         d="m 9426.69,8262.9 c 0,0 -55.53,-889.03 338.95,-1022.39 394.56,-133.37 939.06,-16.72 1094.66,27.76 155.6,44.46 655.7,155.58 689,-400.07 33.4,-555.6 -555.6,-1205.7 -1161.3,-1428 C 9782.32,5217.9 8298.77,5223.5 7637.5,5695.8 6976.35,6168.1 5915.02,7912.86 5970.57,9335.31 6026.16,10757.8 6659.58,11602.4 7948.69,11469 9237.79,11335.7 9498.94,10018.8 9532.3,9590.88 9565.66,9163.05 9426.69,8262.9 9426.69,8262.9"
         style="fill:#1b75bc;fill-opacity:1;fill-rule:nonzero;stroke:none"
         id="path328" /><path
         d="m 7747.38,11482.1 c -2.38,0 -4.78,0.1 -7.16,0.1 4.03,2.1 6.15,3.2 6.15,3.2 l 1.01,-3.3"
         style="fill:#a3c3cf;fill-opacity:1;fill-rule:nonzero;stroke:none"
         id="path330" /><path
         d="m 7140.71,6564 c -123.92,313.28 253.51,880.06 219.23,1101.57 -39.96,258.3 -983.59,1580.96 -943.61,2083.7 39.96,502.73 391.84,592.83 495.8,976.63 98.41,363.2 757.35,719 828.09,756.3 2.38,0 4.78,-0.1 7.16,-0.1 l 223.06,-745.5 c -286.82,-47.4 -609.81,-136.9 -793.03,-305.7 h -0.08 c -5.61,-5.2 -11.14,-10.5 -16.49,-15.9 -2.71,-2.7 -5.34,-5.3 -7.97,-8 -2.63,-2.7 -5.17,-5.5 -7.71,-8.3 -2.55,-2.8 -5.09,-5.5 -7.54,-8.3 -2.55,-2.8 -4.91,-5.6 -7.37,-8.4 -9.64,-11.3 -18.67,-23 -26.99,-35 -1.58,-2.2 -3.07,-4.4 -4.57,-6.6 -1.57,-2.3 -3.06,-4.6 -4.55,-6.9 -5,-7.6 -9.64,-15.4 -14.11,-23.4 -76.27,-136.4 -111.12,-297.5 -111.11,-478.89 0.01,-446.13 210.87,-1014.91 534.93,-1640.27 77.87,-150.28 155.96,-284.21 236.1,-402.37 -95.9,-186.64 -191.33,-417.07 -253.39,-679.17 l -0.01,-0.06 c -0.17,-0.71 -0.33,-1.39 -0.5,-2.11 -0.06,-0.26 -0.12,-0.51 -0.19,-0.78 -0.1,-0.46 -0.22,-0.96 -0.33,-1.42 -0.11,-0.45 -0.2,-0.86 -0.31,-1.31 -0.06,-0.25 -0.14,-0.61 -0.2,-0.86 -0.14,-0.62 -0.29,-1.26 -0.44,-1.87 -0.02,-0.1 -0.03,-0.13 -0.05,-0.23 -28.75,-123.19 -50.1,-253.32 -60.63,-389.16 v 0 c -2.74,-35.3 -4.09,-69.9 -4.1,-103.6 0,-4.4 0.02,-8.8 0.06,-13.1 -9.25,0.1 -18.34,0.2 -27.39,0.2 -97.48,0 -183.24,-9.4 -251.76,-31.1"
         style="fill:#16619c;fill-opacity:1;fill-rule:nonzero;stroke:none"
         id="path332" /><path
         d="m 9792.92,10789.9 c 0,0 429.88,-88 709.68,-623.8 279.9,-535.72 863.7,-1607.29 863.7,-1607.29 l 1299,63.3 -68.5,-418.06 c 0,0 -1446.5,-277 -1814.3,-141.04 -367.8,135.95 -911.63,1039.58 -911.63,1039.58 0,0 -307.88,1287.41 -77.95,1687.31"
         style="fill:#da1c5c;fill-opacity:1;fill-rule:nonzero;stroke:none"
         id="path334" /><path
         d="m 10921.5,8763 c -89.4,139.36 -191.9,309.48 -294.9,451.55 -263.9,363.85 -459.8,1207.45 -459.8,1207.45 -19.7,88.1 -19.6,124.8 -5.5,124.8 63.5,0 410.1,-740.55 521.3,-884.46 62.7,-81.21 187.6,-268.02 299.2,-470.81 v 0.01 L 10921.5,8763"
         style="fill:#e23381;fill-opacity:1;fill-rule:nonzero;stroke:none"
         id="path336" /><path
         d="m 10122.3,8724.43 -74.2,98.86 c 0.7,1.21 1.5,2.47 2.2,3.68 22.5,-32.72 46.6,-67.13 72,-102.52 0,-0.02 0,-0.02 0,-0.02"
         style="fill:#95a9c9;fill-opacity:1;fill-rule:nonzero;stroke:none"
         id="path338" /><path
         d="m 10122.3,8724.45 c -25.4,35.39 -49.5,69.8 -72,102.52 96.3,163.91 173.2,348.86 180.1,528.31 v 0 0 c 0.5,13.76 0.7,27.52 0.4,41.2 -4.4,188.06 -64.6,384.86 -139.3,559.07 148.7,-244.12 309.3,-685.32 30.8,-1231.12"
         style="fill:#a3144a;fill-opacity:1;fill-rule:nonzero;stroke:none"
         id="path340" /><path
         d="M 9315.58,5148.5 9145.19,2300.6 H 8984.13 L 8854.4,5224 l 461.18,-75.5"
         style="fill:#222737;fill-opacity:1;fill-rule:nonzero;stroke:none"
         id="path342" /><path
         d="M 8101.05,5176.6 6642.9,2300.6 h -172.22 l 1305.75,3378.5 324.62,-502.5"
         style="fill:#222737;fill-opacity:1;fill-rule:nonzero;stroke:none"
         id="path344" /><path
         d="m 9999.08,5176.6 1458.12,-2876 h 172.3 l -1305.8,3378.5 -324.62,-502.5"
         style="fill:#222737;fill-opacity:1;fill-rule:nonzero;stroke:none"
         id="path346" /><path
         d="m 10884.3,5719.7 c 0,0 -162.2,-587.6 -1290.11,-776.5 -1127.95,-188.9 -2308.34,425.3 -2604.36,1294.5 -287.96,845.85 2259.08,-75.2 2259.08,-75.2 l 1177.99,-138.9 457.4,-303.9"
         style="fill:#280919;fill-opacity:1;fill-rule:nonzero;stroke:none"
         id="path348" /><path
         d="m 11854,7663.2 c 0,0 951.7,-15.98 1151.6,-647.75 199.9,-631.75 847.6,-3086.75 847.6,-3086.75 0,0 367.9,-567.7 923.7,-611.7 0,0 -387.9,-128 -763.7,-40 -375.8,88 -739.7,176 -739.7,176 l -32,47.9 c 0,0 -20,84 28,307.9 48,223.9 -823.7,1899.2 -823.7,1899.2 l -2071.1,-307.9 c 0,0 -389.87,643.8 -389.87,667.7 0,24.1 989.57,1355.48 989.57,1355.48 l 879.6,239.92"
         style="fill:#efbca0;fill-opacity:1;fill-rule:nonzero;stroke:none"
         id="path350" /><path
         d="m 11854,6595.1 c 0,0 750.2,5.6 739.7,-821.1 -12.1,-954.4 -803.6,-3046.7 -803.6,-3046.7 0,0 -15,-866.7 488.8,-1112.6 0,0 -560.8,263.9 -863.7,560.8 -302.9,296.9 -302.9,518.7 -302.9,518.7 0,0 24,99 126,242.9 102,144 227.9,939.7 255.9,1387.5 28,447.8 8,1130.1 8,1130.1 l -1127.5,-54.6 1479.3,1195"
         style="fill:#ce8e6a;fill-opacity:1;fill-rule:nonzero;stroke:none"
         id="path352" /><path
         d="m 8107.61,9480.42 546.85,-895.12 364.78,703.2 c 0,0 -85.11,935.6 -93.55,953.6 -8.41,18 -362.27,569.8 -362.27,569.8 L 8143.59,10608 8107.61,9480.42"
         style="fill:#ee2a7b;fill-opacity:1;fill-rule:nonzero;stroke:none"
         id="path354" /><path
         d="M 10230.4,9355.28 C 10211,8850.29 9636.97,8301.56 9636.97,8301.56 h -809.16 l -173.38,283.74 c 0.26,2.19 0.61,4.47 0.87,6.66 148.06,1095.8 -360,2184.44 -360,2184.44 l 1497.61,13.5 c 56.01,-52 63.99,-191.9 -5.96,-295.9 0,0 431.75,-581.75 443.85,-1097.52 0.3,-13.68 0.1,-27.44 -0.4,-41.2"
         style="fill:#662d91;fill-opacity:1;fill-rule:nonzero;stroke:none"
         id="path356" /><path
         d="m 8071.62,8301.57 c 0,0 -575.75,-662.36 -647.72,-1589.97 -71.97,-927.6 816.45,-1311.5 1635.73,-1311.5 819.23,0 1315.07,0 1315.07,0 l 1479.3,2263.1 -1855.15,71.97 -361.92,566.4 H 8071.62"
         style="fill:#662d91;fill-opacity:1;fill-rule:nonzero;stroke:none"
         id="path358" /><path
         d="m 9489.21,10528.5 c 17.67,194.4 43.24,453 58.04,509.2 16.97,64.3 80.84,56.9 195.44,49.5 49.91,-3.2 109.44,-6.5 178.9,-3.8 258.01,10 171.51,966.9 171.51,966.9 0,0 -129.26,159.9 -400.8,148.5 -271.63,-11.4 -680.41,-179.9 -820.93,-402.6 -140.52,-222.6 81.76,-227.9 141.54,-457.1 37.1,-142.5 -9.79,-465 -50.64,-688.8 42.02,-83 72.9,-171.8 91.14,-263.7 l 219.17,-43.4 c 63.09,71.7 136.13,134 216.63,185.3"
         style="fill:#f7b38d;fill-opacity:1;fill-rule:nonzero;stroke:none"
         id="path360" /><path
         d="m 9481.26,11104.3 c -80.76,7.4 -115.19,-166.9 44.39,-213 h 0.05 c 8.05,69.5 15.64,124.1 21.55,146.4 16.26,61.6 76.41,37 178.63,50.6 -1.91,-0.1 -164.29,8.7 -244.62,16"
         style="fill:#db9272;fill-opacity:1;fill-rule:nonzero;stroke:none"
         id="path362" /><path
         d="m 9732.7,11485.4 238.68,-25.3 c 0,0 -38.92,-183.1 -159.44,-156.3 -120.49,26.8 -79.24,181.6 -79.24,181.6"
         style="fill:#ffeede;fill-opacity:1;fill-rule:nonzero;stroke:none"
         id="path364" /><path
         d="m 9869.33,11666.2 c 0,0 -23.9,-138.6 0.84,-139.6 24.83,-1.1 75.21,19.6 68.37,42.5 -6.71,22.9 -64.34,112.9 -69.21,97.1"
         style="fill:#db9272;fill-opacity:1;fill-rule:nonzero;stroke:none"
         id="path366" /><path
         d="m 10981.8,9191.54 -199.3,-1416.4 1360.6,-137.87 c 37.5,10.98 85.6,29.27 136.5,60.74 33.4,20.67 60.7,42.52 82.4,62.36 87.3,124.27 174.6,248.52 261.9,372.78 l 252.6,1368.72 -352.8,-703.16 h -221.8 l -1320.1,392.83"
         style="fill:#aa5853;fill-opacity:1;fill-rule:nonzero;stroke:none"
         id="path368" /><path
         d="m 11254.3,9378.35 -272.5,-186.81 1320.1,-392.83 h 221.8 l 352.8,703.16 -225,68.85 -311.6,-544.26 -1085.6,351.89"
         style="fill:#e6d7c4;fill-opacity:1;fill-rule:nonzero;stroke:none"
         id="path370" /><path
         d="m 12362,7760.37 161.7,1038.34 h -221.8 l -158.8,-1161.44 c 31.2,5.16 80.5,17.4 132.7,49.46 39.9,24.55 68,52.41 86.2,73.64"
         style="fill:#663c4e;fill-opacity:1;fill-rule:nonzero;stroke:none"
         id="path372" /><path
         d="m 12795.3,8859.78 c 0,0 -152.9,-34.19 -192.2,-194.08 -39.4,-159.87 92,-386.33 92,-386.33 0,0 274.4,298.63 100.2,580.41"
         style="fill:#efbca0;fill-opacity:1;fill-rule:nonzero;stroke:none"
         id="path374" /><path
         d="m 11853,7663.24 -0.5,0.02 1.5,2.31 -1,-2.33"
         style="fill:#efbca0;fill-opacity:1;fill-rule:nonzero;stroke:none"
         id="path376" /><path
         d="m 10374.7,5400.1 v 0 l 1475.8,2257.75 -760.8,-1680.15 -715,-577.6"
         style="fill:#e08b64;fill-opacity:1;fill-rule:nonzero;stroke:none"
         id="path378" /><path
         d="m 10374.7,5400.1 261.1,399.5 c -0.1,0 -0.2,0 -0.3,0 l 1217,1863.66 0.5,-0.02 -2.5,-5.39 -1475.8,-2257.75"
         style="fill:#60215b;fill-opacity:1;fill-rule:nonzero;stroke:none"
         id="path380" /><path
         d="m 10374.7,5400.1 v 0 l 1479.3,1195 -1004.8,-1172 -474.5,-23"
         style="fill:#a64f2c;fill-opacity:1;fill-rule:nonzero;stroke:none"
         id="path382" /><path
         d="m 8654.43,8585.35 -515.25,843.45 515.28,-782.03 v -61.17 c -0.01,-0.08 -0.02,-0.16 -0.03,-0.25"
         style="fill:#9c1b55;fill-opacity:1;fill-rule:nonzero;stroke:none"
         id="path384" /><path
         d="m 8551.44,10789.9 879.63,-1183.53 159.94,1183.53 H 8551.44"
         style="fill:#f7b38d;fill-opacity:1;fill-rule:nonzero;stroke:none"
         id="path386" /><path
         d="m 7423.9,6711.6 c 10.53,135.84 31.88,265.97 60.63,389.16 -28.75,-123.21 -50.09,-253.35 -60.63,-389.16 m 60.68,389.39 c 0.15,0.61 0.3,1.25 0.44,1.87 -0.14,-0.62 -0.29,-1.26 -0.44,-1.87 m 0.64,2.73 c 0.11,0.45 0.2,0.86 0.31,1.31 -0.11,-0.46 -0.2,-0.85 -0.31,-1.31 m 0.64,2.73 c 0.07,0.27 0.13,0.52 0.19,0.78 -0.06,-0.25 -0.12,-0.52 -0.19,-0.78 m 0.69,2.89 0.01,0.06 -0.01,-0.06"
         style="fill:#0e3d6c;fill-opacity:1;fill-rule:nonzero;stroke:none"
         id="path388" /><path
         d="m 10374.7,5400.1 c 0,0 -495.84,0 -1315.07,0 -788.08,0 -1640.13,355.2 -1639.83,1207.9 0.01,33.7 1.36,68.3 4.1,103.6 v 0 c 10.54,135.81 31.88,265.95 60.63,389.16 0.02,0.08 0.03,0.15 0.05,0.23 0.15,0.61 0.3,1.25 0.44,1.87 0.07,0.29 0.13,0.57 0.2,0.86 0.11,0.46 0.2,0.85 0.31,1.31 0.11,0.46 0.23,0.97 0.33,1.42 0.07,0.26 0.13,0.53 0.19,0.78 0.17,0.72 0.33,1.4 0.5,2.11 l 0.01,0.06 c 62.08,262.1 157.53,492.42 253.46,679.06 13.98,-20.6 28.04,-40.76 42.14,-60.4 -50.54,-339.8 -120.4,-1187.96 356.79,-1576.26 369.89,-300.9 1353.26,-359.3 2060.85,-359.3 163.6,0 312.6,3.1 435.7,7.1 l -260.8,-399.5"
         style="fill:#431c65;fill-opacity:1;fill-rule:nonzero;stroke:none"
         id="path390" /><path
         d="m 10374.7,5400.1 260.8,399.5 c 0.1,0 0.2,0 0.3,0 l -261.1,-399.5"
         style="fill:#3f153f;fill-opacity:1;fill-rule:nonzero;stroke:none"
         id="path392" /><path
         d="m 10663,5414.1 c 0,0 -1247.37,-112.9 -1591.84,387.3 -344.6,500 -365.39,1271.02 -965.53,1262.66 -600.05,-8.33 -1275.48,-252.06 -1569.13,92.76 0,0 271.85,-1367.02 1283.8,-1875.22 1288.9,-647.1 2842.7,132.5 2842.7,132.5"
         style="fill:#1b75bc;fill-opacity:1;fill-rule:nonzero;stroke:none"
         id="path394" /><path
         d="m 10551,7665.61 c 0,0 -42.1,-37.87 -123.6,-94.41 -189.2,-131.13 -590.92,-362.37 -1172.27,-451.77 -831.59,-127.9 -1295.47,191.87 -1751.28,1071.51 -455.82,879.63 -687.67,1647.32 -423.82,2119.16 4.47,8 9.11,15.8 14.11,23.4 1.49,2.3 2.98,4.6 4.55,6.9 1.5,2.2 2.99,4.4 4.57,6.6 8.32,12 17.35,23.7 26.99,35 2.46,2.8 4.82,5.6 7.37,8.4 2.45,2.8 4.99,5.5 7.54,8.3 2.54,2.8 5.08,5.6 7.71,8.3 2.63,2.7 5.26,5.3 7.97,8 5.35,5.4 10.88,10.7 16.49,15.9 h 0.08 c 382.45,352.4 1374.02,359 1374.02,359 l -443.8,-1309.45 963.6,-1577.38 c 0,0 335.9,16.04 735.71,95.98 399.76,79.95 567.76,122.82 567.76,122.82 l 176.3,-456.26"
         style="fill:#da1c5c;fill-opacity:1;fill-rule:nonzero;stroke:none"
         id="path396" /><path
         d="m 8925.67,7092.34 c -484.68,0 -831.45,201.14 -1143.51,635.72 -14.1,19.64 -28.16,39.8 -42.14,60.4 -80.16,118.19 -158.27,252.15 -236.17,402.48 -324.06,625.36 -534.92,1194.14 -534.93,1640.27 -0.01,181.39 34.84,342.49 111.11,478.89 4.47,8 9.11,15.8 14.11,23.4 1.49,2.3 2.98,4.6 4.55,6.9 1.5,2.2 2.99,4.4 4.57,6.6 8.32,12 17.35,23.7 26.99,35 2.46,2.8 4.82,5.6 7.37,8.4 2.45,2.8 4.99,5.5 7.54,8.3 2.54,2.8 5.08,5.6 7.71,8.3 2.63,2.7 5.26,5.3 7.97,8 5.35,5.4 10.88,10.7 16.49,15.9 h 0.08 c 50.93,46.8 112.64,87.5 181.28,122.9 5.09,-2.3 9.91,-4.5 14.44,-6.6 -101.89,-44.6 -178.27,-96.3 -187.61,-152.6 -8,-48.3 -1.05,-113.4 22.34,-185.1 -26.81,-170.4 -12.42,-431.94 108.05,-831.17 305.92,-1013.4 865.87,-1955 1338.52,-2026.97 30.66,-4.67 67.95,-6.82 110.81,-6.82 352.15,-0.02 1083.79,144.84 1662.16,226.66 -189.2,-131.13 -590.92,-362.37 -1172.27,-451.77 -116.68,-17.95 -226.26,-27.09 -329.46,-27.09"
         style="fill:#8f1240;fill-opacity:1;fill-rule:nonzero;stroke:none"
         id="path398" /><path
         d="m 8748.74,7891.84 c -75.02,0.01 -182.89,63.21 -275.29,227.15 -185.92,329.87 -365.84,1157.54 -365.84,1157.54 -12.99,52.63 -12.89,75.84 -2.58,75.84 72.45,0 648.58,-1147.83 720.54,-1305.34 41.37,-90.5 -0.91,-155.2 -76.83,-155.19"
         style="fill:#e23381;fill-opacity:1;fill-rule:nonzero;stroke:none"
         id="path400" /><path
         d="m 8965.78,7783.26 c -65.06,0 -57.53,10.42 71.6,35.29 0,0 873.49,181.88 1117.62,181.88 49.9,0 73.5,-7.61 57.9,-25.95 -70.3,-82.43 -1037,-191.22 -1247.12,-191.22"
         style="fill:#e23381;fill-opacity:1;fill-rule:nonzero;stroke:none"
         id="path402" /><path
         d="m 9262.12,11668.1 c 0,0 -68.97,79.4 -53.97,112.4 3.3,7.2 7.76,10.1 12.71,10.1 17.55,0 41.26,-35.6 41.26,-35.6 0,0 -16.12,18.9 -30.63,18.9 -2.35,0 -4.67,-0.5 -6.86,-1.7 -15.68,-8.2 37.49,-104.1 37.49,-104.1"
         style="fill:#b98072;fill-opacity:1;fill-rule:nonzero;stroke:none"
         id="path404" /><path
         d="m 9006.2,10930.4 c -91.36,105.5 -198,202.4 -322.28,284.5 l 112.01,139 166.98,97.6 c 20.28,-31.1 38.27,-67.4 50,-112.4 23.12,-88.8 13.62,-247.5 -6.71,-408.7"
         style="fill:#b3d6e3;fill-opacity:1;fill-rule:nonzero;stroke:none"
         id="path406" /><path
         d="m 8242.35,10771.7 101.46,21.4 340.11,421.8 c 124.28,-82.1 230.92,-179 322.28,-284.5 -5.95,-47.2 -12.83,-94.6 -20.09,-140.5 h -408.58 c -9,14 -14.11,22 -14.11,22 l -46.81,-22.8 c -49.78,-1.4 -149.27,-5.5 -274.26,-17.4"
         style="fill:#186aab;fill-opacity:1;fill-rule:nonzero;stroke:none"
         id="path408" /><path
         d="m 8172.24,9671.09 257.29,759.11 c 53.9,-158.4 114.58,-362.9 162.98,-595.82 -118.35,-78.52 -258.72,-140.44 -420.27,-163.29 m 375.38,1107.51 3.81,11.3 c 0,0 -12.36,-0.1 -34.82,-0.8 l 46.81,22.8 c 0,0 5.11,-8 14.11,-22 h -26.09 l 8.27,-11.1 -12.09,-0.2"
         style="fill:#d72670;fill-opacity:1;fill-rule:nonzero;stroke:none"
         id="path410" /><path
         d="m 8592.51,9834.38 c -48.4,232.92 -109.08,437.42 -162.98,595.82 l 118.09,348.4 12.09,0.2 408.26,-549.3 c -22.78,-43.8 -49.95,-86.3 -82.37,-126.1 -74.05,-91 -172.06,-188.71 -293.09,-269.02"
         style="fill:#5c2984;fill-opacity:1;fill-rule:nonzero;stroke:none"
         id="path412" /><path
         d="m 9085.55,10789.9 h -99.44 c 7.26,45.9 14.14,93.3 20.09,140.5 20.33,161.2 29.83,319.9 6.71,408.7 -11.73,45 -29.72,81.3 -50,112.4 l 217.35,127.1 c 0,0 197.05,-168.6 109.16,-326.1 -87.93,-157.5 -203.12,-243.5 -203.49,-415.4 -0.04,-14.7 -0.13,-30.5 -0.38,-47.2"
         style="fill:#dfa280;fill-opacity:1;fill-rule:nonzero;stroke:none"
         id="path414" /><path
         d="m 8967.97,10229.5 -408.26,549.3 -8.27,11.1 h 534.11 c -2.22,-146.5 -17.04,-367 -117.58,-560.4"
         style="fill:#dfa280;fill-opacity:1;fill-rule:nonzero;stroke:none"
         id="path416" /><path
         d="m 8036.07,9661.56 c -61.7,0 -126.04,5.74 -193.03,18.25 -368.46,68.81 -568.56,325.59 -635.18,529.69 41.24,262.2 180.01,308.5 180.01,308.5 l 31.92,7.9 c 0,0 -17.41,8 -46.66,21.3 233.81,102.5 601.85,167.9 601.85,167.9 l 267.37,56.6 c 124.99,11.9 224.48,16 274.26,17.4 22.46,0.7 34.82,0.8 34.82,0.8 l -3.81,-11.3 -118.09,-348.4 -257.29,-759.11 c -43.83,-6.2 -89.24,-9.53 -136.17,-9.53"
         style="fill:#c51954;fill-opacity:1;fill-rule:nonzero;stroke:none"
         id="path418" /><path
         d="m 7207.86,10209.5 c -23.39,71.7 -30.34,136.8 -22.34,185.1 9.34,56.3 85.72,108 187.61,152.6 29.25,-13.3 46.66,-21.3 46.66,-21.3 l -31.92,-7.9 c 0,0 -138.77,-46.3 -180.01,-308.5"
         style="fill:#81103a;fill-opacity:1;fill-rule:nonzero;stroke:none"
         id="path420" /><path
         d="m 8955.52,12401.1 c 0,0 86.02,-16.4 59.08,-46.4 -27.02,-30.1 -128.35,-55.9 -149.6,-101.1 -21.26,-45.2 -105.25,91.5 90.52,147.5"
         style="fill:#ffffff;fill-opacity:1;fill-rule:nonzero;stroke:none"
         id="path422" /><path
         d="m 8793.75,12179.5 c 0,0 -44.35,-143.8 -12.73,-120.4 31.76,23.4 75.49,160.1 12.73,120.4"
         style="fill:#ffffff;fill-opacity:1;fill-rule:nonzero;stroke:none"
         id="path424" /><path
         d="m 13237.5,3552 c 0,0 -116,-207 66.9,-329.9 183,-123 392.9,-249 458.9,-416.9 65.9,-167.9 206.9,-305.8 80.9,33 -125.9,338.9 -116.9,411 -69,407.9 48,-3.1 437.9,-174 743.7,-129 305.9,44.9 458.9,209.9 464.8,260.9 6.1,50.9 -275.8,-21 -404.8,-66 -128.9,-44.9 -689.7,102 -866.6,152.9 -177,51 -388.9,222.2 -474.8,87.1"
         style="fill:#280919;fill-opacity:1;fill-rule:nonzero;stroke:none"
         id="path426" /><path
         d="m 11112.3,2694.2 c 0,0 -197.8,-192.8 -117.9,-448.7 80,-255.9 159.9,-203.9 136,-535.9 -24,-331.8 66,-229.9 66,-53.9 0,175.9 -8,379.9 93.9,393.8 102,14 243.9,-164 347.9,-289.8 103.9,-126 477.7,-247.9 713.7,-241.9 235.9,5.9 289.9,36 -90,161.9 -379.8,125.9 -551.7,351.9 -667.7,471.8 -115.9,120 -311.9,755.7 -481.9,542.7"
         style="fill:#280919;fill-opacity:1;fill-rule:nonzero;stroke:none"
         id="path428" /><path
         d="m 9781.34,11726 c 0,0 -45.82,41.1 -90.63,45.7 -54.22,5.7 -90.63,-36.7 -90.63,-36.7 l -36.63,-9 c 0,0 31.68,76.2 104.12,86.2 72.44,10.1 132.55,-11.2 113.77,-86.2"
         style="fill:#db9272;fill-opacity:1;fill-rule:nonzero;stroke:none"
         id="path430" /><path
         d="m 9709.43,11799.6 c -59.58,-12.4 -109.35,-64.6 -109.35,-64.6 0,0 57.97,-72.2 118.21,-65.4 60.23,6.8 63.05,65.4 63.05,65.4 0,0 -12.34,77 -71.91,64.6"
         style="fill:#ffffff;fill-opacity:1;fill-rule:nonzero;stroke:none"
         id="path432" /><path
         d="m 9751.28,11733.9 c 0,-36.4 -18.74,-65.8 -41.85,-65.8 -23.12,0 -41.86,29.4 -41.86,65.8 0,36.3 18.74,65.7 41.86,65.7 23.11,0 41.85,-29.4 41.85,-65.7"
         style="fill:#603913;fill-opacity:1;fill-rule:nonzero;stroke:none"
         id="path434" /><path
         d="m 9743.32,11726 c 0,-16.9 -9.75,-30.6 -21.78,-30.6 -12.02,0 -21.77,13.7 -21.77,30.6 0,16.9 9.75,30.6 21.77,30.6 12.03,0 21.78,-13.7 21.78,-30.6"
         style="fill:#3c2415;fill-opacity:1;fill-rule:nonzero;stroke:none"
         id="path436" /><path
         d="m 9941.81,11739.3 c 0,0 34.69,31.1 68.59,34.7 41.1,4.3 68.6,-27.8 68.6,-27.8 l 27.8,-6.9 c 0,0 -24,57.7 -78.9,65.3 -54.8,7.6 -100.31,-8.5 -86.09,-65.3"
         style="fill:#db9272;fill-opacity:1;fill-rule:nonzero;stroke:none"
         id="path438" /><path
         d="m 9996.25,11795.1 c 45.15,-9.4 82.75,-48.9 82.75,-48.9 0,0 -43.8,-54.7 -89.45,-49.6 -45.61,5.2 -47.74,49.6 -47.74,49.6 0,0 9.34,58.3 54.44,48.9"
         style="fill:#ffffff;fill-opacity:1;fill-rule:nonzero;stroke:none"
         id="path440" /><path
         d="m 9964.57,11745.3 c 0,-27.5 14.18,-49.8 31.68,-49.8 17.55,0 31.65,22.3 31.65,49.8 0,27.5 -14.1,49.8 -31.65,49.8 -17.5,0 -31.68,-22.3 -31.68,-49.8"
         style="fill:#603913;fill-opacity:1;fill-rule:nonzero;stroke:none"
         id="path442" /><path
         d="m 9970.6,11739.3 c 0,-12.8 7.38,-23.2 16.48,-23.2 9.11,0 16.52,10.4 16.52,23.2 0,12.8 -7.41,23.2 -16.52,23.2 -9.1,0 -16.48,-10.4 -16.48,-23.2"
         style="fill:#3c2415;fill-opacity:1;fill-rule:nonzero;stroke:none"
         id="path444" /><path
         d="m 9662.46,11890.7 c -52.05,-5.3 -102.29,-22 -151.85,-39.6 36.3,54.5 99.28,76.8 159.66,86.8 28.03,4.6 57.39,7.1 84.54,-3.6 22.38,-8.8 76.17,-63.5 27.24,-56.4 -41.28,6.1 -77.23,17.2 -119.59,12.8"
         style="fill:#3c2415;fill-opacity:1;fill-rule:nonzero;stroke:none"
         id="path446" /><path
         d="m 10009.3,11872.5 c 32.3,-7.3 62.1,-23.4 91.5,-40.1 -16.6,44.9 -53.8,66.1 -90.9,77.4 -17.2,5.3 -35.52,9 -53.98,2.3 -15.22,-5.6 -55.78,-45.3 -23.94,-42.6 26.87,2.3 50.96,8.9 77.32,3"
         style="fill:#3c2415;fill-opacity:1;fill-rule:nonzero;stroke:none"
         id="path448" /><path
         d="m 10218.1,12385.6 c 9.9,-28.9 50.7,-176.7 -19.3,-332.5 -46.2,-103.1 -145.7,-186.2 -258.54,-192.7 13.14,36.6 7.01,79.6 -15.86,111.1 -79.3,-55 -174.08,-87.4 -270.44,-92.5 21.95,5.5 40.28,23.6 46.14,45.5 -71.82,-3.4 -145.66,-7.3 -211.1,-37.1 -65.44,-29.8 -121.4,-92 -121.76,-163.9 -20.97,72.2 -84.74,134.2 -159.72,138.4 -74.98,4.2 -150.75,-62.1 -143.82,-136.9 8.42,-90.9 114.35,-137.9 156.88,-218.7 26.66,-50.6 26.19,-112.1 11,-167.2 -21.61,-78.5 -56.33,-133.2 -72.34,-155.2 -51.62,-70.8 -111.21,-190.9 -141.76,-406 10.34,-86.8 16.96,-244.7 -50.09,-420.8 -105.11,-275.9 -320.73,-411.15 -410.74,-465.81 -90.54,-54.98 -349.31,-206.68 -686.23,-145.25 -54.69,9.97 -317.32,63.09 -521.64,294.66 -42.01,47.6 -140.66,162 -187.84,344 -48.63,187.5 -15,340.6 -1.7,398 82.4,355.3 413.17,715.2 753.55,727.4 195.37,7.1 299.81,-103.9 464,-27 22.36,10.5 115.12,56.9 213.31,239.3 178.18,331.1 48.89,505.8 176.45,729.2 169.56,297 594.24,332.2 644.72,335.7 317,21.9 710.83,-123.4 806.83,-401.7"
         style="fill:#3c2415;fill-opacity:1;fill-rule:nonzero;stroke:none"
         id="path450" /><path
         d="m 10388.7,8085.65 493.4,397.33 -22.4,-158.99 c 0,0 501.9,221.13 496.9,-22.42 -5,-243.55 -124.9,-496.95 -833.8,-563.09 l -134.1,347.17"
         style="fill:#efbca0;fill-opacity:1;fill-rule:nonzero;stroke:none"
         id="path452" /><path
         d="m 9231.21,12425.4 c -132.61,-58.6 -217.71,-192.6 -262.84,-330.4 -45.13,-137.8 -57.9,-283.9 -91.25,-425 -66.81,-282.7 -223.43,-550 -461.1,-717.1 -237.69,-167.1 -559.53,-222.5 -827.87,-111.1 222.45,-9.9 449.17,22.8 651.53,115.8 202.35,92.9 379.03,248.6 478.04,448.1 78.28,157.6 105.87,334.7 153.38,504.2 47.52,169.5 122.42,341.9 265.26,444.8 112.63,81.1 333.08,120.9 437.24,3.5 -91.94,85.4 -221.89,120.5 -342.39,67.2"
         style="fill:#603913;fill-opacity:1;fill-rule:nonzero;stroke:none"
         id="path454" /><path
         d="m 8986.37,11458.6 c 7.17,-136 29.21,-272.5 12.67,-407.7 -35.76,-292.2 -258.35,-543.8 -532.47,-651.2 -274.12,-107.4 -589.42,-81.4 -860.76,32.8 191.58,-35.6 385.94,-71.4 580.13,-55.1 194.18,16.3 391.54,91.4 514.74,242.3 263.77,323.3 108.26,795.2 317.04,1142.9 -31.48,-98.5 -36.76,-201.4 -31.35,-304"
         style="fill:#603913;fill-opacity:1;fill-rule:nonzero;stroke:none"
         id="path456" /><path
         d="m 9057.37,11867.9 c -12.73,86.8 23.57,179.2 92.01,234.1 73.29,58.8 153.72,54.2 240.38,47.9 -43.24,38 -135.92,60.4 -194.04,48.9 -142.05,-28.1 -155.36,-215 -138.35,-330.9"
         style="fill:#603913;fill-opacity:1;fill-rule:nonzero;stroke:none"
         id="path458" /><path
         d="m 9316.08,12647.6 c -164.1,-3.1 -331.97,-78.1 -420.18,-216.5 -137.47,-215.7 -66.76,-539.2 -256.61,-710.6 194.86,165 173.63,482.8 339.51,676.9 105.24,123.2 274.84,178.2 436.75,173.2 165.27,-5 298.13,-101 450.93,-122.7 -15.45,2.2 -73.54,54.2 -95.13,65.8 -44.3,23.8 -91.95,46.5 -138.39,66.3 -100,42.7 -207.63,69.6 -316.88,67.6"
         style="fill:#603913;fill-opacity:1;fill-rule:nonzero;stroke:none"
         id="path460" /><path
         d="m 10066.8,12339 c -31.5,110.5 -112.96,205.6 -217.25,253.8 80.01,5.7 155.05,-49.1 194.55,-118.9 39.5,-69.9 49.6,-152.3 53.4,-232.4 2.5,-52.1 3.9,-107.3 -11.9,-157 -34.8,15.2 -3.3,200.2 -18.8,254.5"
         style="fill:#603913;fill-opacity:1;fill-rule:nonzero;stroke:none"
         id="path462" /><path
         d="m 9762.99,12093.6 c -43.89,-65.7 -129.14,-94.4 -208.06,-89.6 68.29,-30.1 150.18,-33.7 216.59,0.4 66.41,34 112.82,108.7 104,182.9 -4.78,40.1 -92.05,173.7 -119.04,101.4 -7.38,-19.8 27.55,-67.7 30.24,-90.3 4.28,-36 -3.47,-74.4 -23.73,-104.8"
         style="fill:#603913;fill-opacity:1;fill-rule:nonzero;stroke:none"
         id="path464" /><path
         d="m 7354.08,10857 c 47,199.2 115.1,416.7 291.38,520.7 158.71,93.6 376.72,76.3 548.86,35.9 -157.1,-92.2 -385.02,12.3 -561.87,-80.5 -170.82,-89.6 -288.02,-282 -278.37,-476.1"
         style="fill:#603913;fill-opacity:1;fill-rule:nonzero;stroke:none"
         id="path466" /><path
         d="m 8157.09,9930.64 c -313.64,-49.72 -649.37,76.66 -852.37,320.86 189.77,-273.08 542.19,-423.07 870.56,-370.48 278.24,44.55 633.63,279.38 691.69,575.48 -47.6,-19.1 -85.2,-124.4 -119.83,-169.6 -48.2,-62.8 -104.43,-119.5 -166.7,-168.5 -122.57,-96.5 -269.01,-163.29 -423.35,-187.76"
         style="fill:#603913;fill-opacity:1;fill-rule:nonzero;stroke:none"
         id="path468" /><path
         d="m 8094.83,10638.3 c -224.77,-37.2 -455.03,-4.5 -678.52,39.7 232.09,-41 466.73,-67.5 702.11,-79.4 72.62,-3.6 147.41,-5.6 215.81,19.1 150.96,54.5 165.65,195.3 262.99,290.9 -95.76,-156.6 -330.27,-241.8 -502.39,-270.3"
         style="fill:#603913;fill-opacity:1;fill-rule:nonzero;stroke:none"
         id="path470" /><path
         d="m 9636.97,8301.56 h -0.03 l -0.01,0.01 H 8827.8 l -32.29,52.84 -141.05,230.89 v 0.3 c 0.26,2.1 0.59,4.27 0.84,6.36 8.59,18.15 16.83,36.47 24.64,54.97 141.94,-64.36 290.7,-130.09 445.44,-130.09 11.14,0 22.3,0.34 33.51,1.05 166.73,10.52 432.12,206.54 374.51,400.95 69.55,-93.74 186.58,-140.71 296.38,-140.72 85.91,-0.01 167.38,28.74 218.32,86.34 87.2,98.61 166.3,283.71 169.6,435.78 0.5,26.71 0.4,55.5 10.4,55.5 0.7,0 1.5,-0.15 2.3,-0.46 -6.9,-179.45 -83.8,-364.4 -180.1,-528.31 -0.7,-1.21 -1.5,-2.47 -2.2,-3.68 -174.52,-295.58 -411.13,-521.73 -411.13,-521.73"
         style="fill:#5c2984;fill-opacity:1;fill-rule:nonzero;stroke:none"
         id="path472" /><path
         d="m 9636.94,8301.56 h -809.13 l -0.01,0.01 h 809.13"
         style="fill:#5c2984;fill-opacity:1;fill-rule:nonzero;stroke:none"
         id="path474" /><path
         d="m 8654.46,8585.3 -0.03,0.05 c 0.01,0.09 0.02,0.17 0.03,0.25 v -0.3"
         style="fill:#3c195c;fill-opacity:1;fill-rule:nonzero;stroke:none"
         id="path476" /><path
         d="m 8795.51,8354.41 -141.08,230.89 c 0,0.02 0,0.04 0,0.05 l 0.03,-0.05 141.05,-230.89"
         style="fill:#c51954;fill-opacity:1;fill-rule:nonzero;stroke:none"
         id="path478" /></g></g></svg>
